<mxfile host="Electron" modified="2023-09-23T17:05:09.688Z" agent="Mozilla/5.0 (Macintosh; Intel Mac OS X 10_15_7) AppleWebKit/537.36 (KHTML, like Gecko) draw.io/21.7.5 Chrome/114.0.5735.289 Electron/25.8.1 Safari/537.36" etag="y9rghbz7o1R7wXEsPr7q" version="21.7.5" type="device" pages="5">
  <diagram id="3WmalaxDdcL299lWThp2" name="Overalnadproxy">
    <mxGraphModel dx="2074" dy="1129" grid="1" gridSize="10" guides="1" tooltips="1" connect="1" arrows="1" fold="1" page="1" pageScale="1" pageWidth="850" pageHeight="1100" math="0" shadow="0">
      <root>
        <mxCell id="0" />
        <mxCell id="1" parent="0" />
        <mxCell id="0jfvfCZB1g9kh5apFzZK-11" style="edgeStyle=orthogonalEdgeStyle;rounded=0;orthogonalLoop=1;jettySize=auto;html=1;entryX=0.002;entryY=0.52;entryDx=0;entryDy=0;entryPerimeter=0;exitX=0.999;exitY=0.59;exitDx=0;exitDy=0;exitPerimeter=0;" parent="1" source="zAolCj1ES43xrOYAV-14-1" target="0jfvfCZB1g9kh5apFzZK-1" edge="1">
          <mxGeometry relative="1" as="geometry">
            <mxPoint x="834" y="566" as="sourcePoint" />
            <Array as="points">
              <mxPoint x="829" y="566" />
            </Array>
          </mxGeometry>
        </mxCell>
        <mxCell id="zAolCj1ES43xrOYAV-14-1" value="" style="shape=folder;fontStyle=1;tabWidth=80;tabHeight=30;tabPosition=left;html=1;boundedLbl=1;fillColor=#eeeeee;strokeColor=#36393d;" parent="1" vertex="1">
          <mxGeometry x="10" y="430" width="900" height="530" as="geometry" />
        </mxCell>
        <mxCell id="zAolCj1ES43xrOYAV-14-2" value="NadProxy" style="text;html=1;strokeColor=none;fillColor=none;align=center;verticalAlign=middle;whiteSpace=wrap;rounded=0;" parent="1" vertex="1">
          <mxGeometry x="30" y="440" width="40" height="20" as="geometry" />
        </mxCell>
        <mxCell id="Uy2T8kzb8adFujIgeDXh-22" value="" style="group" parent="1" vertex="1" connectable="0">
          <mxGeometry x="70" y="500" width="820" height="290" as="geometry" />
        </mxCell>
        <mxCell id="Uy2T8kzb8adFujIgeDXh-1" value="" style="rounded=0;whiteSpace=wrap;html=1;" parent="Uy2T8kzb8adFujIgeDXh-22" vertex="1">
          <mxGeometry width="820" height="290" as="geometry" />
        </mxCell>
        <mxCell id="Uy2T8kzb8adFujIgeDXh-5" value="" style="group" parent="Uy2T8kzb8adFujIgeDXh-22" vertex="1" connectable="0">
          <mxGeometry x="410" y="41.43" width="390" height="232" as="geometry" />
        </mxCell>
        <mxCell id="0jfvfCZB1g9kh5apFzZK-1" value="" style="shape=folder;fontStyle=1;tabWidth=80;tabHeight=30;tabPosition=left;html=1;boundedLbl=1;" parent="Uy2T8kzb8adFujIgeDXh-5" vertex="1">
          <mxGeometry width="390.00000000000006" height="232" as="geometry" />
        </mxCell>
        <mxCell id="0jfvfCZB1g9kh5apFzZK-10" value="Common" style="text;html=1;strokeColor=none;fillColor=none;align=center;verticalAlign=middle;whiteSpace=wrap;rounded=0;" parent="Uy2T8kzb8adFujIgeDXh-5" vertex="1">
          <mxGeometry x="19.500000000000004" width="39.00000000000001" height="16.571428571428573" as="geometry" />
        </mxCell>
        <mxCell id="fkhPY8gq4dQedrN3GQ9H-36" value="Task Executor" style="shape=folder;fontStyle=1;tabWidth=80;tabHeight=30;tabPosition=left;html=1;boundedLbl=1;" parent="Uy2T8kzb8adFujIgeDXh-5" vertex="1">
          <mxGeometry x="48.75000000000001" y="157.42857142857142" width="117.00000000000001" height="49.71428571428571" as="geometry" />
        </mxCell>
        <mxCell id="fkhPY8gq4dQedrN3GQ9H-37" value="Asynchronous Manager" style="shape=folder;fontStyle=1;tabWidth=80;tabHeight=30;tabPosition=left;html=1;boundedLbl=1;" parent="Uy2T8kzb8adFujIgeDXh-5" vertex="1">
          <mxGeometry x="207.1875" y="157.42857142857142" width="136.50000000000003" height="49.71428571428571" as="geometry" />
        </mxCell>
        <mxCell id="fkhPY8gq4dQedrN3GQ9H-38" value="Availability Monitor" style="shape=folder;fontStyle=1;tabWidth=80;tabHeight=30;tabPosition=left;html=1;boundedLbl=1;" parent="Uy2T8kzb8adFujIgeDXh-5" vertex="1">
          <mxGeometry x="48.75000000000001" y="95.28571428571428" width="136.50000000000003" height="41.42857142857142" as="geometry" />
        </mxCell>
        <mxCell id="fkhPY8gq4dQedrN3GQ9H-39" value="Message Executor" style="shape=folder;fontStyle=1;tabWidth=80;tabHeight=30;tabPosition=left;html=1;boundedLbl=1;" parent="Uy2T8kzb8adFujIgeDXh-5" vertex="1">
          <mxGeometry x="209.625" y="93.21428571428571" width="131.625" height="45.57142857142857" as="geometry" />
        </mxCell>
        <mxCell id="Uy2T8kzb8adFujIgeDXh-6" value="Request layer" style="text;html=1;strokeColor=none;fillColor=none;align=center;verticalAlign=middle;whiteSpace=wrap;rounded=0;" parent="Uy2T8kzb8adFujIgeDXh-22" vertex="1">
          <mxGeometry x="8.51063829787234" y="8.285714285714286" width="85.1063829787234" height="16.571428571428573" as="geometry" />
        </mxCell>
        <mxCell id="Uy2T8kzb8adFujIgeDXh-16" value="" style="shape=folder;fontStyle=1;tabWidth=110;tabHeight=30;tabPosition=left;html=1;boundedLbl=1;fillColor=#ffffff;" parent="Uy2T8kzb8adFujIgeDXh-22" vertex="1">
          <mxGeometry x="34.04255319148936" y="149.1428571428571" width="331.9148936170212" height="124.28571428571428" as="geometry" />
        </mxCell>
        <mxCell id="Uy2T8kzb8adFujIgeDXh-17" value="Abstraction Request" style="text;html=1;strokeColor=none;fillColor=none;align=center;verticalAlign=middle;whiteSpace=wrap;rounded=0;" parent="Uy2T8kzb8adFujIgeDXh-22" vertex="1">
          <mxGeometry x="34.04191489361702" y="157.42857142857142" width="110.63829787234042" height="16.571428571428573" as="geometry" />
        </mxCell>
        <mxCell id="Uy2T8kzb8adFujIgeDXh-18" value="Request Manager" style="html=1;dropTarget=0;" parent="Uy2T8kzb8adFujIgeDXh-22" vertex="1">
          <mxGeometry x="59.57" y="207.14" width="110.43" height="49.71" as="geometry" />
        </mxCell>
        <mxCell id="l7VeJB8GNXYyBZmDeZ_B-1" value="Request Factory" style="html=1;dropTarget=0;" parent="Uy2T8kzb8adFujIgeDXh-22" vertex="1">
          <mxGeometry x="210" y="207.14" width="110.43" height="49.71" as="geometry" />
        </mxCell>
        <mxCell id="fkhPY8gq4dQedrN3GQ9H-7" value="" style="rounded=0;whiteSpace=wrap;html=1;" parent="1" vertex="1">
          <mxGeometry x="200" y="830" width="590" height="120" as="geometry" />
        </mxCell>
        <mxCell id="fkhPY8gq4dQedrN3GQ9H-9" value="Binder Wrapper" style="shape=folder;fontStyle=1;tabWidth=80;tabHeight=30;tabPosition=left;html=1;boundedLbl=1;" parent="1" vertex="1">
          <mxGeometry x="340" y="880" width="140" height="60" as="geometry" />
        </mxCell>
        <mxCell id="fkhPY8gq4dQedrN3GQ9H-10" value="SomeIP Wrapper" style="shape=folder;fontStyle=1;tabWidth=80;tabHeight=30;tabPosition=left;html=1;boundedLbl=1;" parent="1" vertex="1">
          <mxGeometry x="590" y="880" width="140" height="60" as="geometry" />
        </mxCell>
        <mxCell id="fkhPY8gq4dQedrN3GQ9H-11" value="Low IPC layer" style="text;html=1;strokeColor=none;fillColor=none;align=center;verticalAlign=middle;whiteSpace=wrap;rounded=0;" parent="1" vertex="1">
          <mxGeometry x="200" y="840" width="100" height="20" as="geometry" />
        </mxCell>
      </root>
    </mxGraphModel>
  </diagram>
  <diagram name="overaldec_nadproxy" id="kW1XBEr20NJ0NjcDPHEI">
    <mxGraphModel grid="1" page="1" gridSize="10" guides="1" tooltips="1" connect="1" arrows="1" fold="1" pageScale="1" pageWidth="850" pageHeight="1100" math="0" shadow="0">
      <root>
        <mxCell id="qotU6viqQkt4nRAaQ7jl-0" />
        <mxCell id="qotU6viqQkt4nRAaQ7jl-1" parent="qotU6viqQkt4nRAaQ7jl-0" />
        <mxCell id="qotU6viqQkt4nRAaQ7jl-2" value="" style="shape=folder;fontStyle=1;tabWidth=80;tabHeight=30;tabPosition=left;html=1;boundedLbl=1;strokeColor=#36393d;fillColor=#eeeeee;" parent="qotU6viqQkt4nRAaQ7jl-1" vertex="1">
          <mxGeometry x="-20" y="720" width="1880" height="1180" as="geometry" />
        </mxCell>
        <mxCell id="qotU6viqQkt4nRAaQ7jl-3" value="NadProxy" style="text;html=1;strokeColor=none;fillColor=none;align=center;verticalAlign=middle;whiteSpace=wrap;rounded=0;" parent="qotU6viqQkt4nRAaQ7jl-1" vertex="1">
          <mxGeometry x="10" y="730" width="40" height="20" as="geometry" />
        </mxCell>
        <mxCell id="2o6GESQ2wpf_LnaKLs66-0" value="" style="group" parent="qotU6viqQkt4nRAaQ7jl-1" vertex="1" connectable="0">
          <mxGeometry x="50" y="1370" width="1900" height="510" as="geometry" />
        </mxCell>
        <mxCell id="GQWLnMnnqXkNqsEWw9Q0-0" value="" style="rounded=0;whiteSpace=wrap;html=1;fillColor=#ffffff;" parent="2o6GESQ2wpf_LnaKLs66-0" vertex="1">
          <mxGeometry width="1774.5314432989692" height="342.4061538461538" as="geometry" />
        </mxCell>
        <mxCell id="GQWLnMnnqXkNqsEWw9Q0-1" value="" style="group" parent="2o6GESQ2wpf_LnaKLs66-0" vertex="1" connectable="0">
          <mxGeometry x="233.0188679245283" y="376.23901422886684" width="198.72924528301886" height="101.50710360169461" as="geometry" />
        </mxCell>
        <mxCell id="z8DELMX0mdGXNFG_pZAe-40" value="" style="shape=folder;fontStyle=1;tabWidth=80;tabHeight=30;tabPosition=left;html=1;boundedLbl=1;fillColor=#e1d5e7;strokeColor=#9673a6;" parent="GQWLnMnnqXkNqsEWw9Q0-1" vertex="1">
          <mxGeometry width="198.72924528301886" height="84.58925300141216" as="geometry" />
        </mxCell>
        <mxCell id="z8DELMX0mdGXNFG_pZAe-42" value="commonAPI" style="shape=folder;fontStyle=1;spacingTop=10;tabWidth=40;tabHeight=14;tabPosition=left;html=1;" parent="GQWLnMnnqXkNqsEWw9Q0-1" vertex="1">
          <mxGeometry x="15.786544576134881" y="42.297411115866986" width="71.03945059260684" height="26.79535343522994" as="geometry" />
        </mxCell>
        <mxCell id="z8DELMX0mdGXNFG_pZAe-43" value="VSomeIP" style="shape=folder;fontStyle=1;spacingTop=10;tabWidth=40;tabHeight=14;tabPosition=left;html=1;" parent="GQWLnMnnqXkNqsEWw9Q0-1" vertex="1">
          <mxGeometry x="110.507538686257" y="40.961741556983775" width="71.03945059260684" height="29.474888778752934" as="geometry" />
        </mxCell>
        <mxCell id="z8DELMX0mdGXNFG_pZAe-44" value="SomeIP Stack" style="text;html=1;strokeColor=none;fillColor=none;align=center;verticalAlign=middle;whiteSpace=wrap;rounded=0;" parent="GQWLnMnnqXkNqsEWw9Q0-1" vertex="1">
          <mxGeometry y="5.355918292524078" width="63.146178304539404" height="10.718141374091974" as="geometry" />
        </mxCell>
        <mxCell id="GQWLnMnnqXkNqsEWw9Q0-2" value="" style="group" parent="2o6GESQ2wpf_LnaKLs66-0" vertex="1" connectable="0">
          <mxGeometry x="896.2264150943396" y="376.23901422886684" width="286.79245283018867" height="133.76098577113308" as="geometry" />
        </mxCell>
        <mxCell id="rqL5SBEy0CXLUFXiVIKl-1" value="" style="shape=folder;fontStyle=1;tabWidth=80;tabHeight=30;tabPosition=left;html=1;boundedLbl=1;fillColor=#e1d5e7;strokeColor=#9673a6;" parent="GQWLnMnnqXkNqsEWw9Q0-2" vertex="1">
          <mxGeometry x="23.935266865104126" y="1.9233369357928498e-13" width="262.8571859650846" height="133.7609857711328" as="geometry" />
        </mxCell>
        <mxCell id="rqL5SBEy0CXLUFXiVIKl-2" value="Binder Stack" style="text;html=1;strokeColor=none;fillColor=none;align=center;verticalAlign=middle;whiteSpace=wrap;rounded=0;" parent="GQWLnMnnqXkNqsEWw9Q0-2" vertex="1">
          <mxGeometry width="143.58318368551807" height="17.446533431541226" as="geometry" />
        </mxCell>
        <mxCell id="rqL5SBEy0CXLUFXiVIKl-3" value="Binder lib" style="shape=folder;fontStyle=1;spacingTop=10;tabWidth=40;tabHeight=14;tabPosition=left;html=1;" parent="GQWLnMnnqXkNqsEWw9Q0-2" vertex="1">
          <mxGeometry x="59.826326535632596" y="26.169800147311843" width="143.58318368551807" height="40.708578006929535" as="geometry" />
        </mxCell>
        <mxCell id="rqL5SBEy0CXLUFXiVIKl-4" value="Binder driver" style="shape=folder;fontStyle=1;spacingTop=10;tabWidth=40;tabHeight=14;tabPosition=left;html=1;" parent="GQWLnMnnqXkNqsEWw9Q0-2" vertex="1">
          <mxGeometry x="59.826326535632596" y="76.6886167710802" width="143.58318368551807" height="43.61633357885306" as="geometry" />
        </mxCell>
        <mxCell id="GQWLnMnnqXkNqsEWw9Q0-5" value="" style="group" parent="2o6GESQ2wpf_LnaKLs66-0" vertex="1" connectable="0">
          <mxGeometry x="17.92452830188679" y="46.34092752335932" width="618.3962264150944" height="253.76775900423652" as="geometry" />
        </mxCell>
        <mxCell id="z8DELMX0mdGXNFG_pZAe-1" value="" style="shape=folder;fontStyle=1;tabWidth=105;tabHeight=24;tabPosition=left;html=1;boundedLbl=1;fillColor=#fff2cc;strokeColor=#d6b656;" parent="GQWLnMnnqXkNqsEWw9Q0-5" vertex="1">
          <mxGeometry x="7.275249722530526" width="611.1209766925639" height="253.76775900423652" as="geometry" />
        </mxCell>
        <mxCell id="z8DELMX0mdGXNFG_pZAe-2" value="SomeIP wrapper" style="text;html=1;strokeColor=none;fillColor=none;align=center;verticalAlign=middle;whiteSpace=wrap;rounded=0;" parent="GQWLnMnnqXkNqsEWw9Q0-5" vertex="1">
          <mxGeometry width="110" height="20" as="geometry" />
        </mxCell>
        <mxCell id="z8DELMX0mdGXNFG_pZAe-3" value="" style="shape=folder;fontStyle=1;tabWidth=80;tabHeight=30;tabPosition=left;html=1;boundedLbl=1;" parent="GQWLnMnnqXkNqsEWw9Q0-5" vertex="1">
          <mxGeometry x="36.37624861265261" y="27.583452065677925" width="298.2852386237514" height="215.15092611228746" as="geometry" />
        </mxCell>
        <mxCell id="z8DELMX0mdGXNFG_pZAe-4" value="Stub&lt;br&gt;" style="text;html=1;strokeColor=none;fillColor=none;align=center;verticalAlign=middle;whiteSpace=wrap;rounded=0;" parent="GQWLnMnnqXkNqsEWw9Q0-5" vertex="1">
          <mxGeometry x="50.92674805771366" y="33.10014247881343" width="29.10099889012209" height="11.03338082627115" as="geometry" />
        </mxCell>
        <mxCell id="z8DELMX0mdGXNFG_pZAe-5" value="" style="shape=folder;fontStyle=1;tabWidth=80;tabHeight=30;tabPosition=left;html=1;boundedLbl=1;" parent="GQWLnMnnqXkNqsEWw9Q0-5" vertex="1">
          <mxGeometry x="341.93673695893443" y="44.13609776061067" width="269.1842397336293" height="182.05078363347397" as="geometry" />
        </mxCell>
        <mxCell id="z8DELMX0mdGXNFG_pZAe-6" value="Proxy" style="text;html=1;strokeColor=none;fillColor=none;align=center;verticalAlign=middle;whiteSpace=wrap;rounded=0;" parent="GQWLnMnnqXkNqsEWw9Q0-5" vertex="1">
          <mxGeometry x="356.48723640399555" y="49.65278817374636" width="29.10099889012209" height="11.03338082627115" as="geometry" />
        </mxCell>
        <mxCell id="z8DELMX0mdGXNFG_pZAe-7" value="Stub Base" style="html=1;dropTarget=0;fillColor=#ffe6cc;strokeColor=#d79b00;" parent="GQWLnMnnqXkNqsEWw9Q0-5" vertex="1">
          <mxGeometry x="152.77971698113208" y="60.68911123490445" width="65.4772475027747" height="33.10014247881344" as="geometry" />
        </mxCell>
        <mxCell id="z8DELMX0mdGXNFG_pZAe-9" value="Diagnostic" style="html=1;dropTarget=0;" parent="GQWLnMnnqXkNqsEWw9Q0-5" vertex="1">
          <mxGeometry x="43.64938956714762" y="104.82263453998908" width="65.4772475027747" height="33.10014247881344" as="geometry" />
        </mxCell>
        <mxCell id="z8DELMX0mdGXNFG_pZAe-11" value="Coding" style="html=1;dropTarget=0;" parent="GQWLnMnnqXkNqsEWw9Q0-5" vertex="1">
          <mxGeometry x="138.22974472807994" y="104.82263453998908" width="65.4772475027747" height="33.10014247881344" as="geometry" />
        </mxCell>
        <mxCell id="z8DELMX0mdGXNFG_pZAe-13" value="Variant" style="html=1;dropTarget=0;" parent="GQWLnMnnqXkNqsEWw9Q0-5" vertex="1">
          <mxGeometry x="152.77760821309658" y="159.9840219809317" width="65.4772475027747" height="33.10014247881344" as="geometry" />
        </mxCell>
        <mxCell id="z8DELMX0mdGXNFG_pZAe-15" value="eCall" style="html=1;dropTarget=0;" parent="GQWLnMnnqXkNqsEWw9Q0-5" vertex="1">
          <mxGeometry x="43.65149833518315" y="154.46733156779618" width="65.4772475027747" height="33.10014247881344" as="geometry" />
        </mxCell>
        <mxCell id="z8DELMX0mdGXNFG_pZAe-17" value="LPA" style="html=1;dropTarget=0;" parent="GQWLnMnnqXkNqsEWw9Q0-5" vertex="1">
          <mxGeometry x="254.63743063263036" y="159.9865964364579" width="65.4772475027747" height="33.10014247881344" as="geometry" />
        </mxCell>
        <mxCell id="z8DELMX0mdGXNFG_pZAe-19" value="Provisioning" style="html=1;dropTarget=0;" parent="GQWLnMnnqXkNqsEWw9Q0-5" vertex="1">
          <mxGeometry x="240.08060488346283" y="110.33711827695946" width="65.4772475027747" height="33.10014247881344" as="geometry" />
        </mxCell>
        <mxCell id="z8DELMX0mdGXNFG_pZAe-21" value="VIN" style="html=1;dropTarget=0;" parent="GQWLnMnnqXkNqsEWw9Q0-5" vertex="1">
          <mxGeometry x="50.92674805771366" y="198.60085487288066" width="65.4772475027747" height="33.10014247881344" as="geometry" />
        </mxCell>
        <mxCell id="z8DELMX0mdGXNFG_pZAe-23" value="Time Provider" style="html=1;dropTarget=0;" parent="GQWLnMnnqXkNqsEWw9Q0-5" vertex="1">
          <mxGeometry x="138.22552719200888" y="203.86377752701208" width="65.4772475027747" height="33.10014247881344" as="geometry" />
        </mxCell>
        <mxCell id="z8DELMX0mdGXNFG_pZAe-25" value="Mobile Communication&lt;br&gt;&amp;nbsp;Internal" style="html=1;dropTarget=0;" parent="GQWLnMnnqXkNqsEWw9Q0-5" vertex="1">
          <mxGeometry x="225.53274139844612" y="203.8678230999817" width="94.57824639289679" height="33.10014247881344" as="geometry" />
        </mxCell>
        <mxCell id="z8DELMX0mdGXNFG_pZAe-27" value="Proxy Base" style="html=1;dropTarget=0;fillColor=#ffe6cc;strokeColor=#d79b00;" parent="GQWLnMnnqXkNqsEWw9Q0-5" vertex="1">
          <mxGeometry x="432.930077691454" y="82.7485173002293" width="65.4772475027747" height="33.10014247881344" as="geometry" />
        </mxCell>
        <mxCell id="z8DELMX0mdGXNFG_pZAe-29" value="eCall Proxy Client" style="html=1;dropTarget=0;" parent="GQWLnMnnqXkNqsEWw9Q0-5" vertex="1">
          <mxGeometry x="358.4947835738069" y="137.92093812199823" width="65.4772475027747" height="33.10014247881344" as="geometry" />
        </mxCell>
        <mxCell id="z8DELMX0mdGXNFG_pZAe-31" value="Diagnostic Client" style="html=1;dropTarget=0;" parent="GQWLnMnnqXkNqsEWw9Q0-5" vertex="1">
          <mxGeometry x="465.6133462819091" y="137.91321475541983" width="65.4772475027747" height="33.10014247881344" as="geometry" />
        </mxCell>
        <mxCell id="z8DELMX0mdGXNFG_pZAe-33" value="DirectHTTP Client" style="html=1;dropTarget=0;" parent="GQWLnMnnqXkNqsEWw9Q0-5" vertex="1">
          <mxGeometry x="367.45493895671484" y="186.09083991269372" width="65.4772475027747" height="33.10014247881344" as="geometry" />
        </mxCell>
        <mxCell id="z8DELMX0mdGXNFG_pZAe-35" value="Temp Monitor &lt;br&gt;Client" style="html=1;dropTarget=0;" parent="GQWLnMnnqXkNqsEWw9Q0-5" vertex="1">
          <mxGeometry x="443.790233074362" y="186.09231103013713" width="65.4772475027747" height="33.10014247881344" as="geometry" />
        </mxCell>
        <mxCell id="GQWLnMnnqXkNqsEWw9Q0-57" style="edgeStyle=orthogonalEdgeStyle;rounded=0;orthogonalLoop=1;jettySize=auto;html=1;exitX=0;exitY=0;exitDx=0;exitDy=14;exitPerimeter=0;entryX=0.25;entryY=1;entryDx=0;entryDy=0;" parent="z8DELMX0mdGXNFG_pZAe-35" edge="1">
          <mxGeometry relative="1" as="geometry">
            <mxPoint x="38.47724750277462" y="20.999999999999773" as="sourcePoint" />
            <mxPoint x="43.47724750277462" y="26.999999999999773" as="targetPoint" />
          </mxGeometry>
        </mxCell>
        <mxCell id="z8DELMX0mdGXNFG_pZAe-37" value="WakeupD Client" style="html=1;dropTarget=0;" parent="GQWLnMnnqXkNqsEWw9Q0-5" vertex="1">
          <mxGeometry x="531.0932297447282" y="177.64000575849175" width="65.4772475027747" height="33.10014247881344" as="geometry" />
        </mxCell>
        <mxCell id="GQWLnMnnqXkNqsEWw9Q0-45" value="" style="group" parent="2o6GESQ2wpf_LnaKLs66-0" vertex="1" connectable="0">
          <mxGeometry x="684.2688679245282" y="46.34092752335932" width="630.0401129104147" height="279.1445349046602" as="geometry" />
        </mxCell>
        <mxCell id="GQWLnMnnqXkNqsEWw9Q0-9" value="" style="shape=folder;fontStyle=1;tabWidth=109;tabHeight=24;tabPosition=left;html=1;boundedLbl=1;fillColor=#fff2cc;strokeColor=#d6b656;" parent="GQWLnMnnqXkNqsEWw9Q0-45" vertex="1">
          <mxGeometry x="6.774624870004547" width="623.2654880404099" height="279.14453490466013" as="geometry" />
        </mxCell>
        <mxCell id="GQWLnMnnqXkNqsEWw9Q0-10" value="Binder&amp;nbsp;wrapper" style="text;html=1;strokeColor=none;fillColor=none;align=center;verticalAlign=middle;whiteSpace=wrap;rounded=0;" parent="GQWLnMnnqXkNqsEWw9Q0-45" vertex="1">
          <mxGeometry x="-14.27" width="130" height="17.44" as="geometry" />
        </mxCell>
        <mxCell id="GQWLnMnnqXkNqsEWw9Q0-11" value="" style="shape=folder;fontStyle=1;tabWidth=80;tabHeight=30;tabPosition=left;html=1;boundedLbl=1;" parent="GQWLnMnnqXkNqsEWw9Q0-45" vertex="1">
          <mxGeometry x="54.19699896003555" y="29.077555719235434" width="277.7596196701827" height="238.43595689773056" as="geometry" />
        </mxCell>
        <mxCell id="GQWLnMnnqXkNqsEWw9Q0-12" value="Proxy" style="text;html=1;strokeColor=none;fillColor=none;align=center;verticalAlign=middle;whiteSpace=wrap;rounded=0;" parent="GQWLnMnnqXkNqsEWw9Q0-45" vertex="1">
          <mxGeometry x="74.52087357004899" y="29.077555719235434" width="27.09849948001782" height="11.631022287694174" as="geometry" />
        </mxCell>
        <mxCell id="GQWLnMnnqXkNqsEWw9Q0-13" value="Proxy Base" style="html=1;dropTarget=0;fillColor=#ffe6cc;strokeColor=#d79b00;" parent="GQWLnMnnqXkNqsEWw9Q0-45" vertex="1">
          <mxGeometry x="142.26712227009364" y="63.970622582317965" width="60.97162383004011" height="34.89306686308252" as="geometry" />
        </mxCell>
        <mxCell id="GQWLnMnnqXkNqsEWw9Q0-15" value="HMIMgr&amp;nbsp;" style="html=1;dropTarget=0;" parent="GQWLnMnnqXkNqsEWw9Q0-45" vertex="1">
          <mxGeometry x="67.74624870004463" y="110.49471173309466" width="60.97162383004011" height="34.89306686308252" as="geometry" />
        </mxCell>
        <mxCell id="GQWLnMnnqXkNqsEWw9Q0-17" value="AudioManager" style="html=1;dropTarget=0;" parent="GQWLnMnnqXkNqsEWw9Q0-45" vertex="1">
          <mxGeometry x="149.04174714009798" y="113.4024673050182" width="60.97162383004011" height="34.89306686308252" as="geometry" />
        </mxCell>
        <mxCell id="GQWLnMnnqXkNqsEWw9Q0-19" value="AntenaManager" style="html=1;dropTarget=0;" parent="GQWLnMnnqXkNqsEWw9Q0-45" vertex="1">
          <mxGeometry x="74.52087357004899" y="162.83431202771845" width="60.97162383004011" height="34.89306686308252" as="geometry" />
        </mxCell>
        <mxCell id="GQWLnMnnqXkNqsEWw9Q0-21" value="ThermalManager" style="html=1;dropTarget=0;" parent="GQWLnMnnqXkNqsEWw9Q0-45" vertex="1">
          <mxGeometry x="149.04174714009798" y="168.64982317156552" width="60.97162383004011" height="34.89306686308252" as="geometry" />
        </mxCell>
        <mxCell id="GQWLnMnnqXkNqsEWw9Q0-23" value="TelephonyManager" style="html=1;dropTarget=0;" parent="GQWLnMnnqXkNqsEWw9Q0-45" vertex="1">
          <mxGeometry x="230.33724558015152" y="127.94124516463593" width="60.97162383004011" height="34.89306686308252" as="geometry" />
        </mxCell>
        <mxCell id="GQWLnMnnqXkNqsEWw9Q0-25" value="V2XManager" style="html=1;dropTarget=0;" parent="GQWLnMnnqXkNqsEWw9Q0-45" vertex="1">
          <mxGeometry x="230.33724558015152" y="180.28084545925972" width="60.97162383004011" height="34.89306686308252" as="geometry" />
        </mxCell>
        <mxCell id="GQWLnMnnqXkNqsEWw9Q0-27" value="DiagManager" style="html=1;dropTarget=0;" parent="GQWLnMnnqXkNqsEWw9Q0-45" vertex="1">
          <mxGeometry x="74.52087357004899" y="215.17391232234223" width="60.97162383004011" height="34.89306686308252" as="geometry" />
        </mxCell>
        <mxCell id="GQWLnMnnqXkNqsEWw9Q0-29" value="ConfigManager" style="html=1;dropTarget=0;" parent="GQWLnMnnqXkNqsEWw9Q0-45" vertex="1">
          <mxGeometry x="152.42905957510024" y="220.98942346618932" width="60.97162383004011" height="34.89306686308252" as="geometry" />
        </mxCell>
        <mxCell id="GQWLnMnnqXkNqsEWw9Q0-31" value="eCallManager" style="html=1;dropTarget=0;" parent="GQWLnMnnqXkNqsEWw9Q0-45" vertex="1">
          <mxGeometry x="230.33724558015152" y="220.98942346618932" width="60.97162383004011" height="34.89306686308252" as="geometry" />
        </mxCell>
        <mxCell id="GQWLnMnnqXkNqsEWw9Q0-33" value="" style="shape=folder;fontStyle=1;tabWidth=80;tabHeight=30;tabPosition=left;html=1;boundedLbl=1;" parent="GQWLnMnnqXkNqsEWw9Q0-45" vertex="1">
          <mxGeometry x="372.6043678502451" y="29.077555719235434" width="250.66112019016487" height="232.62044575388353" as="geometry" />
        </mxCell>
        <mxCell id="GQWLnMnnqXkNqsEWw9Q0-34" value="Stub" style="text;html=1;strokeColor=none;fillColor=none;align=center;verticalAlign=middle;whiteSpace=wrap;rounded=0;" parent="GQWLnMnnqXkNqsEWw9Q0-45" vertex="1">
          <mxGeometry x="386.15361759025404" y="29.077555719235434" width="27.09849948001782" height="11.631022287694174" as="geometry" />
        </mxCell>
        <mxCell id="GQWLnMnnqXkNqsEWw9Q0-35" value="Stub Base" style="html=1;dropTarget=0;fillColor=#ffe6cc;strokeColor=#d79b00;" parent="GQWLnMnnqXkNqsEWw9Q0-45" vertex="1">
          <mxGeometry x="453.89986629029846" y="63.970622582317965" width="60.97162383004011" height="34.89306686308252" as="geometry" />
        </mxCell>
        <mxCell id="GQWLnMnnqXkNqsEWw9Q0-37" value="NadProxy_eCall" style="html=1;dropTarget=0;" parent="GQWLnMnnqXkNqsEWw9Q0-45" vertex="1">
          <mxGeometry x="399.7028673302629" y="122.12573402078885" width="60.97162383004011" height="34.89306686308252" as="geometry" />
        </mxCell>
        <mxCell id="GQWLnMnnqXkNqsEWw9Q0-39" value="NadProxy_Diagnostic" style="html=1;dropTarget=0;" parent="GQWLnMnnqXkNqsEWw9Q0-45" vertex="1">
          <mxGeometry x="480.99836577031647" y="122.12573402078885" width="81.29549844005349" height="34.89306686308252" as="geometry" />
        </mxCell>
        <mxCell id="GQWLnMnnqXkNqsEWw9Q0-41" value="NadProxy_DirectHttp" style="html=1;dropTarget=0;" parent="GQWLnMnnqXkNqsEWw9Q0-45" vertex="1">
          <mxGeometry x="399.7028673302629" y="174.46533431541263" width="81.29549844005349" height="34.89306686308252" as="geometry" />
        </mxCell>
        <mxCell id="GQWLnMnnqXkNqsEWw9Q0-43" value="LPAMgr&amp;nbsp;" style="html=1;dropTarget=0;" parent="GQWLnMnnqXkNqsEWw9Q0-45" vertex="1">
          <mxGeometry x="250.66112019016498" y="75.60164487001215" width="60.97162383004011" height="34.89306686308252" as="geometry" />
        </mxCell>
        <mxCell id="GQWLnMnnqXkNqsEWw9Q0-58" style="edgeStyle=orthogonalEdgeStyle;rounded=0;orthogonalLoop=1;jettySize=auto;html=1;exitX=0.5;exitY=1;exitDx=0;exitDy=0;exitPerimeter=0;entryX=0.492;entryY=0.3;entryDx=0;entryDy=0;entryPerimeter=0;" parent="2o6GESQ2wpf_LnaKLs66-0" source="z8DELMX0mdGXNFG_pZAe-1" target="z8DELMX0mdGXNFG_pZAe-40" edge="1">
          <mxGeometry y="29.423076923076923" as="geometry" />
        </mxCell>
        <mxCell id="GQWLnMnnqXkNqsEWw9Q0-59" style="edgeStyle=orthogonalEdgeStyle;rounded=0;orthogonalLoop=1;jettySize=auto;html=1;exitX=0;exitY=0;exitDx=150.87;exitDy=30;exitPerimeter=0;entryX=0.563;entryY=0.997;entryDx=0;entryDy=0;entryPerimeter=0;" parent="2o6GESQ2wpf_LnaKLs66-0" source="z8DELMX0mdGXNFG_pZAe-40" target="z8DELMX0mdGXNFG_pZAe-1" edge="1">
          <mxGeometry y="29.423076923076923" as="geometry" />
        </mxCell>
        <mxCell id="GQWLnMnnqXkNqsEWw9Q0-60" style="edgeStyle=orthogonalEdgeStyle;rounded=0;orthogonalLoop=1;jettySize=auto;html=1;exitX=0.5;exitY=1;exitDx=0;exitDy=0;exitPerimeter=0;" parent="2o6GESQ2wpf_LnaKLs66-0" source="GQWLnMnnqXkNqsEWw9Q0-9" edge="1">
          <mxGeometry y="29.423076923076923" as="geometry">
            <mxPoint x="1012.7358490566039" y="403.30757518931864" as="targetPoint" />
          </mxGeometry>
        </mxCell>
        <mxCell id="GQWLnMnnqXkNqsEWw9Q0-62" style="edgeStyle=orthogonalEdgeStyle;rounded=0;orthogonalLoop=1;jettySize=auto;html=1;exitX=0;exitY=0;exitDx=186.64664059104723;exitDy=30;exitPerimeter=0;entryX=0.786;entryY=1;entryDx=0;entryDy=0;entryPerimeter=0;" parent="2o6GESQ2wpf_LnaKLs66-0" source="rqL5SBEy0CXLUFXiVIKl-1" target="GQWLnMnnqXkNqsEWw9Q0-9" edge="1">
          <mxGeometry y="29.423076923076923" as="geometry" />
        </mxCell>
        <mxCell id="GQWLnMnnqXkNqsEWw9Q0-66" value="Low IPC Layer" style="text;html=1;strokeColor=none;fillColor=none;align=center;verticalAlign=middle;whiteSpace=wrap;rounded=0;" parent="2o6GESQ2wpf_LnaKLs66-0" vertex="1">
          <mxGeometry x="9.79381443298969" width="97.9381443298969" height="19.615384615384613" as="geometry" />
        </mxCell>
        <mxCell id="Q7ShDQGM0BOKLqNpAqQj-0" value="" style="group;fillColor=#cce5ff;strokeColor=#36393d;" parent="qotU6viqQkt4nRAaQ7jl-1" vertex="1" connectable="0">
          <mxGeometry x="50" y="780" width="1780" height="540" as="geometry" />
        </mxCell>
        <mxCell id="2o6GESQ2wpf_LnaKLs66-1" value="" style="rounded=0;whiteSpace=wrap;html=1;fillColor=#ffffff;" parent="Q7ShDQGM0BOKLqNpAqQj-0" vertex="1">
          <mxGeometry width="1780" height="540" as="geometry" />
        </mxCell>
        <mxCell id="2o6GESQ2wpf_LnaKLs66-2" value="Request Manager" style="html=1;dropTarget=0;fillColor=#fff2cc;strokeColor=#d6b656;" parent="Q7ShDQGM0BOKLqNpAqQj-0" vertex="1">
          <mxGeometry x="261.19565217391306" y="90" width="304.7282608695652" height="140" as="geometry" />
        </mxCell>
        <mxCell id="2o6GESQ2wpf_LnaKLs66-4" value="" style="group" parent="Q7ShDQGM0BOKLqNpAqQj-0" vertex="1" connectable="0">
          <mxGeometry x="48.369565217391305" y="310" width="802.9347826086956" height="200" as="geometry" />
        </mxCell>
        <mxCell id="2o6GESQ2wpf_LnaKLs66-5" value="" style="shape=folder;fontStyle=1;tabWidth=80;tabHeight=30;tabPosition=left;html=1;boundedLbl=1;fillColor=#fff2cc;strokeColor=#d6b656;" parent="2o6GESQ2wpf_LnaKLs66-4" vertex="1">
          <mxGeometry width="802.9347826086956" height="200" as="geometry" />
        </mxCell>
        <mxCell id="2o6GESQ2wpf_LnaKLs66-7" value="Request Base" style="html=1;fillColor=#dae8fc;strokeColor=#6c8ebf;" parent="2o6GESQ2wpf_LnaKLs66-4" vertex="1">
          <mxGeometry x="336.11223458038415" y="23.25581395348837" width="102.70096056622849" height="23.25581395348837" as="geometry" />
        </mxCell>
        <mxCell id="2o6GESQ2wpf_LnaKLs66-8" value="eCall Request" style="html=1;" parent="2o6GESQ2wpf_LnaKLs66-4" vertex="1">
          <mxGeometry x="84.02805864509604" y="69.76744186046513" width="102.70096056622849" height="23.25581395348837" as="geometry" />
        </mxCell>
        <mxCell id="2o6GESQ2wpf_LnaKLs66-9" value="directHTTP" style="html=1;" parent="2o6GESQ2wpf_LnaKLs66-4" vertex="1">
          <mxGeometry x="308.10288169868545" y="69.76744186046513" width="102.70096056622849" height="23.25581395348837" as="geometry" />
        </mxCell>
        <mxCell id="2o6GESQ2wpf_LnaKLs66-10" value="Diagnostic Request" style="html=1;" parent="2o6GESQ2wpf_LnaKLs66-4" vertex="1">
          <mxGeometry x="522.8412537917087" y="65.11627906976744" width="102.70096056622849" height="23.25581395348837" as="geometry" />
        </mxCell>
        <mxCell id="2o6GESQ2wpf_LnaKLs66-11" value="Coding Request" style="html=1;" parent="2o6GESQ2wpf_LnaKLs66-4" vertex="1">
          <mxGeometry x="37.34580384226491" y="116.27906976744187" width="112.03741152679474" height="23.25581395348837" as="geometry" />
        </mxCell>
        <mxCell id="2o6GESQ2wpf_LnaKLs66-12" value="LPA" style="html=1;" parent="2o6GESQ2wpf_LnaKLs66-4" vertex="1">
          <mxGeometry x="233.41127401415568" y="116.27906976744187" width="102.70096056622849" height="23.25581395348837" as="geometry" />
        </mxCell>
        <mxCell id="2o6GESQ2wpf_LnaKLs66-13" value="Provisioning" style="html=1;" parent="2o6GESQ2wpf_LnaKLs66-4" vertex="1">
          <mxGeometry x="429.47674418604635" y="116.27906976744187" width="102.70096056622849" height="23.25581395348837" as="geometry" />
        </mxCell>
        <mxCell id="2o6GESQ2wpf_LnaKLs66-14" value="Security" style="html=1;" parent="2o6GESQ2wpf_LnaKLs66-4" vertex="1">
          <mxGeometry x="550.8506066734074" y="116.27906976744187" width="102.70096056622849" height="23.25581395348837" as="geometry" />
        </mxCell>
        <mxCell id="2o6GESQ2wpf_LnaKLs66-15" value="Variant" style="html=1;" parent="2o6GESQ2wpf_LnaKLs66-4" vertex="1">
          <mxGeometry x="672.2244691607683" y="116.27906976744187" width="102.70096056622849" height="23.25581395348837" as="geometry" />
        </mxCell>
        <mxCell id="2o6GESQ2wpf_LnaKLs66-16" value="Request Factory" style="html=1;fillColor=#dae8fc;strokeColor=#6c8ebf;" parent="2o6GESQ2wpf_LnaKLs66-4" vertex="1">
          <mxGeometry x="350.11691102123353" y="162.79069767441862" width="102.70096056622849" height="23.25581395348837" as="geometry" />
        </mxCell>
        <mxCell id="2o6GESQ2wpf_LnaKLs66-17" value="" style="group" parent="2o6GESQ2wpf_LnaKLs66-4" vertex="1" connectable="0">
          <mxGeometry width="802.9347826086956" height="200" as="geometry" />
        </mxCell>
        <mxCell id="2o6GESQ2wpf_LnaKLs66-18" value="" style="group" parent="2o6GESQ2wpf_LnaKLs66-17" vertex="1" connectable="0">
          <mxGeometry width="802.9347826086956" height="200" as="geometry" />
        </mxCell>
        <mxCell id="2o6GESQ2wpf_LnaKLs66-19" value="" style="shape=folder;fontStyle=1;tabWidth=122;tabHeight=30;tabPosition=left;html=1;boundedLbl=1;fillColor=#fff2cc;strokeColor=#d6b656;" parent="2o6GESQ2wpf_LnaKLs66-18" vertex="1">
          <mxGeometry width="802.9347826086956" height="200" as="geometry" />
        </mxCell>
        <mxCell id="2o6GESQ2wpf_LnaKLs66-20" value="Request Factory" style="text;html=1;strokeColor=none;fillColor=none;align=center;verticalAlign=middle;whiteSpace=wrap;rounded=0;" parent="2o6GESQ2wpf_LnaKLs66-18" vertex="1">
          <mxGeometry y="10" width="110" height="9.3" as="geometry" />
        </mxCell>
        <mxCell id="2o6GESQ2wpf_LnaKLs66-21" value="Request Base" style="html=1;fillColor=#dae8fc;strokeColor=#6c8ebf;" parent="2o6GESQ2wpf_LnaKLs66-18" vertex="1">
          <mxGeometry x="336.11223458038415" y="23.25581395348837" width="102.70096056622849" height="23.25581395348837" as="geometry" />
        </mxCell>
        <mxCell id="2o6GESQ2wpf_LnaKLs66-22" value="eCall Request" style="html=1;" parent="2o6GESQ2wpf_LnaKLs66-18" vertex="1">
          <mxGeometry x="84.02805864509604" y="69.76744186046513" width="102.70096056622849" height="23.25581395348837" as="geometry" />
        </mxCell>
        <mxCell id="2o6GESQ2wpf_LnaKLs66-23" value="directHTTP" style="html=1;" parent="2o6GESQ2wpf_LnaKLs66-18" vertex="1">
          <mxGeometry x="308.10288169868545" y="69.76744186046513" width="102.70096056622849" height="23.25581395348837" as="geometry" />
        </mxCell>
        <mxCell id="2o6GESQ2wpf_LnaKLs66-24" value="Diagnostic Request" style="html=1;" parent="2o6GESQ2wpf_LnaKLs66-18" vertex="1">
          <mxGeometry x="522.8412537917087" y="65.11627906976744" width="102.70096056622849" height="23.25581395348837" as="geometry" />
        </mxCell>
        <mxCell id="2o6GESQ2wpf_LnaKLs66-25" value="Coding Request" style="html=1;" parent="2o6GESQ2wpf_LnaKLs66-18" vertex="1">
          <mxGeometry x="37.34580384226491" y="116.27906976744187" width="112.03741152679474" height="23.25581395348837" as="geometry" />
        </mxCell>
        <mxCell id="2o6GESQ2wpf_LnaKLs66-26" value="LPA" style="html=1;" parent="2o6GESQ2wpf_LnaKLs66-18" vertex="1">
          <mxGeometry x="233.41127401415568" y="116.27906976744187" width="102.70096056622849" height="23.25581395348837" as="geometry" />
        </mxCell>
        <mxCell id="2o6GESQ2wpf_LnaKLs66-27" value="Provisioning" style="html=1;" parent="2o6GESQ2wpf_LnaKLs66-18" vertex="1">
          <mxGeometry x="429.47674418604635" y="116.27906976744187" width="102.70096056622849" height="23.25581395348837" as="geometry" />
        </mxCell>
        <mxCell id="2o6GESQ2wpf_LnaKLs66-28" value="Security" style="html=1;" parent="2o6GESQ2wpf_LnaKLs66-18" vertex="1">
          <mxGeometry x="550.8506066734074" y="116.27906976744187" width="102.70096056622849" height="23.25581395348837" as="geometry" />
        </mxCell>
        <mxCell id="2o6GESQ2wpf_LnaKLs66-29" value="Variant" style="html=1;" parent="2o6GESQ2wpf_LnaKLs66-18" vertex="1">
          <mxGeometry x="672.2244691607683" y="116.27906976744187" width="102.70096056622849" height="23.25581395348837" as="geometry" />
        </mxCell>
        <mxCell id="2o6GESQ2wpf_LnaKLs66-30" value="Request Factory" style="html=1;fillColor=#dae8fc;strokeColor=#6c8ebf;" parent="2o6GESQ2wpf_LnaKLs66-18" vertex="1">
          <mxGeometry x="350.11691102123353" y="162.79069767441862" width="102.70096056622849" height="23.25581395348837" as="geometry" />
        </mxCell>
        <mxCell id="2o6GESQ2wpf_LnaKLs66-31" value="" style="group" parent="Q7ShDQGM0BOKLqNpAqQj-0" vertex="1" connectable="0">
          <mxGeometry x="880" y="10" width="880.65" height="505.00370370370365" as="geometry" />
        </mxCell>
        <mxCell id="OQioquYHCavhhEm6FHEU-0" value="" style="shape=folder;fontStyle=1;tabWidth=80;tabHeight=30;tabPosition=left;html=1;boundedLbl=1;fillColor=#dae8fc;strokeColor=#6c8ebf;" parent="2o6GESQ2wpf_LnaKLs66-31" vertex="1">
          <mxGeometry width="880.6499999999999" height="505" as="geometry" />
        </mxCell>
        <mxCell id="OQioquYHCavhhEm6FHEU-1" value="Common" style="text;html=1;strokeColor=none;fillColor=none;align=center;verticalAlign=middle;whiteSpace=wrap;rounded=0;" parent="2o6GESQ2wpf_LnaKLs66-31" vertex="1">
          <mxGeometry x="20.244827586206892" y="10" width="40.489655172413784" height="20" as="geometry" />
        </mxCell>
        <mxCell id="OQioquYHCavhhEm6FHEU-2" value="" style="group" parent="2o6GESQ2wpf_LnaKLs66-31" vertex="1" connectable="0">
          <mxGeometry x="10.122413793103446" y="45" width="344.1620689655172" height="160" as="geometry" />
        </mxCell>
        <mxCell id="OQioquYHCavhhEm6FHEU-3" value="" style="shape=folder;fontStyle=1;tabWidth=80;tabHeight=30;tabPosition=left;html=1;boundedLbl=1;fillColor=#fff2cc;strokeColor=#d6b656;" parent="OQioquYHCavhhEm6FHEU-2" vertex="1">
          <mxGeometry width="344.1620689655172" height="160" as="geometry" />
        </mxCell>
        <mxCell id="OQioquYHCavhhEm6FHEU-4" value="Task Executor" style="text;html=1;strokeColor=none;fillColor=none;align=center;verticalAlign=middle;whiteSpace=wrap;rounded=0;" parent="OQioquYHCavhhEm6FHEU-2" vertex="1">
          <mxGeometry x="27.170689655172414" y="8.88888888888889" width="36.22758620689655" height="17.77777777777778" as="geometry" />
        </mxCell>
        <mxCell id="OQioquYHCavhhEm6FHEU-5" value="Task Queue" style="html=1;" parent="OQioquYHCavhhEm6FHEU-2" vertex="1">
          <mxGeometry x="54.34137931034483" y="35.55555555555556" width="99.6258620689655" height="44.44444444444444" as="geometry" />
        </mxCell>
        <mxCell id="OQioquYHCavhhEm6FHEU-6" value="Task Dispatcher" style="html=1;" parent="OQioquYHCavhhEm6FHEU-2" vertex="1">
          <mxGeometry x="126.79655172413794" y="106.66666666666666" width="99.6258620689655" height="44.44444444444444" as="geometry" />
        </mxCell>
        <mxCell id="OQioquYHCavhhEm6FHEU-7" value="Task Worker Thread" style="html=1;" parent="OQioquYHCavhhEm6FHEU-2" vertex="1">
          <mxGeometry x="208.30862068965516" y="35.55555555555556" width="99.6258620689655" height="44.44444444444444" as="geometry" />
        </mxCell>
        <mxCell id="OQioquYHCavhhEm6FHEU-29" value="" style="group" parent="2o6GESQ2wpf_LnaKLs66-31" vertex="1" connectable="0">
          <mxGeometry x="425.1413793103448" y="65" width="445.3862068965517" height="140" as="geometry" />
        </mxCell>
        <mxCell id="OQioquYHCavhhEm6FHEU-30" value="" style="shape=folder;fontStyle=1;tabWidth=80;tabHeight=30;tabPosition=left;html=1;boundedLbl=1;fillColor=#fff2cc;strokeColor=#d6b656;" parent="OQioquYHCavhhEm6FHEU-29" vertex="1">
          <mxGeometry width="445.3862068965517" height="140" as="geometry" />
        </mxCell>
        <mxCell id="OQioquYHCavhhEm6FHEU-31" value="Message Executor" style="text;html=1;strokeColor=none;fillColor=none;align=center;verticalAlign=middle;whiteSpace=wrap;rounded=0;" parent="OQioquYHCavhhEm6FHEU-29" vertex="1">
          <mxGeometry x="17.46612576064909" y="8.235294117647058" width="34.93225152129818" height="16.470588235294116" as="geometry" />
        </mxCell>
        <mxCell id="OQioquYHCavhhEm6FHEU-32" value="Message Queue" style="html=1;" parent="OQioquYHCavhhEm6FHEU-29" vertex="1">
          <mxGeometry x="209.59350912778905" y="32.94117647058823" width="96.06369168356999" height="41.17647058823529" as="geometry" />
        </mxCell>
        <mxCell id="OQioquYHCavhhEm6FHEU-33" value="Message Dispatcher" style="html=1;" parent="OQioquYHCavhhEm6FHEU-29" vertex="1">
          <mxGeometry x="180" y="90.59" width="121.29" height="41.18" as="geometry" />
        </mxCell>
        <mxCell id="OQioquYHCavhhEm6FHEU-34" value="Message Serializer/Deserializer" style="html=1;" parent="OQioquYHCavhhEm6FHEU-29" vertex="1">
          <mxGeometry x="10" y="32.94" width="173.39" height="41.18" as="geometry" />
        </mxCell>
        <mxCell id="OQioquYHCavhhEm6FHEU-35" value="Message worker thread" style="html=1;" parent="OQioquYHCavhhEm6FHEU-29" vertex="1">
          <mxGeometry x="318.7567951318459" y="32.94117647058823" width="122.26288032454362" height="41.17647058823529" as="geometry" />
        </mxCell>
        <mxCell id="N9k2dsuFGB0qE2a_s3XX-0" value="" style="group" parent="2o6GESQ2wpf_LnaKLs66-31" vertex="1" connectable="0">
          <mxGeometry x="344.1620689655172" y="245" width="526.3655172413793" height="250" as="geometry" />
        </mxCell>
        <mxCell id="N9k2dsuFGB0qE2a_s3XX-1" value="" style="shape=folder;fontStyle=1;tabWidth=80;tabHeight=30;tabPosition=left;html=1;boundedLbl=1;fillColor=#fff2cc;strokeColor=#d6b656;" parent="N9k2dsuFGB0qE2a_s3XX-0" vertex="1">
          <mxGeometry width="526.3655172413793" height="250" as="geometry" />
        </mxCell>
        <mxCell id="N9k2dsuFGB0qE2a_s3XX-2" value="Availability Monitor" style="text;html=1;strokeColor=none;fillColor=none;align=center;verticalAlign=middle;whiteSpace=wrap;rounded=0;" parent="N9k2dsuFGB0qE2a_s3XX-0" vertex="1">
          <mxGeometry x="16.710016420361242" y="6.578947368421053" width="33.420032840722484" height="13.157894736842106" as="geometry" />
        </mxCell>
        <mxCell id="N9k2dsuFGB0qE2a_s3XX-3" value="Process monitor" style="html=1;" parent="N9k2dsuFGB0qE2a_s3XX-0" vertex="1">
          <mxGeometry x="16.710016420361242" y="85.52631578947367" width="142.03513957307058" height="26.315789473684212" as="geometry" />
        </mxCell>
        <mxCell id="N9k2dsuFGB0qE2a_s3XX-4" value="" style="shape=folder;fontStyle=1;tabWidth=124;tabHeight=22;tabPosition=left;html=1;boundedLbl=1;" parent="N9k2dsuFGB0qE2a_s3XX-0" vertex="1">
          <mxGeometry x="242.29523809523806" y="32.89473684210526" width="267.3602627257799" height="111.84210526315792" as="geometry" />
        </mxCell>
        <mxCell id="N9k2dsuFGB0qE2a_s3XX-5" value="Request state monitor" style="text;html=1;strokeColor=none;fillColor=none;align=center;verticalAlign=middle;whiteSpace=wrap;rounded=0;" parent="N9k2dsuFGB0qE2a_s3XX-0" vertex="1">
          <mxGeometry x="242.3" y="32.89" width="127.7" height="19.74" as="geometry" />
        </mxCell>
        <mxCell id="N9k2dsuFGB0qE2a_s3XX-6" value="Trace Manager" style="html=1;" parent="N9k2dsuFGB0qE2a_s3XX-0" vertex="1">
          <mxGeometry x="300.7802955665024" y="111.84210526315792" width="150.3901477832512" height="26.315789473684212" as="geometry" />
        </mxCell>
        <mxCell id="N9k2dsuFGB0qE2a_s3XX-7" value="Trace Info" style="html=1;" parent="N9k2dsuFGB0qE2a_s3XX-0" vertex="1">
          <mxGeometry x="300.7802955665024" y="72.36842105263156" width="150.3901477832512" height="26.315789473684212" as="geometry" />
        </mxCell>
        <mxCell id="N9k2dsuFGB0qE2a_s3XX-8" value="" style="shape=folder;fontStyle=1;tabWidth=170;tabHeight=30;tabPosition=left;html=1;boundedLbl=1;" parent="N9k2dsuFGB0qE2a_s3XX-0" vertex="1">
          <mxGeometry x="125.32512315270932" y="171.05263157894734" width="309.13530377668303" height="72.36842105263156" as="geometry" />
        </mxCell>
        <mxCell id="N9k2dsuFGB0qE2a_s3XX-9" value="Remote Sub state monitor" style="text;html=1;strokeColor=none;fillColor=none;align=center;verticalAlign=middle;whiteSpace=wrap;rounded=0;" parent="N9k2dsuFGB0qE2a_s3XX-0" vertex="1">
          <mxGeometry x="133.68013136288994" y="177.63157894736838" width="125.32512315270932" height="13.157894736842106" as="geometry" />
        </mxCell>
        <mxCell id="N9k2dsuFGB0qE2a_s3XX-10" value="SomeIP Stub manager" style="html=1;" parent="N9k2dsuFGB0qE2a_s3XX-0" vertex="1">
          <mxGeometry x="142.03513957307058" y="203.94736842105263" width="125.32512315270932" height="26.315789473684212" as="geometry" />
        </mxCell>
        <mxCell id="N9k2dsuFGB0qE2a_s3XX-11" value="Binder Stub manager" style="html=1;" parent="N9k2dsuFGB0qE2a_s3XX-0" vertex="1">
          <mxGeometry x="300.7802955665024" y="203.94736842105263" width="125.32512315270932" height="26.315789473684212" as="geometry" />
        </mxCell>
        <mxCell id="HNt6NsIe_tpLABc0ol-T-0" value="" style="shape=folder;fontStyle=1;tabWidth=140;tabHeight=25;tabPosition=left;html=1;boundedLbl=1;fillColor=#fff2cc;strokeColor=#d6b656;" vertex="1" parent="2o6GESQ2wpf_LnaKLs66-31">
          <mxGeometry x="10.12" y="211.3" width="308.9" height="278.7" as="geometry" />
        </mxCell>
        <mxCell id="HNt6NsIe_tpLABc0ol-T-1" value="Asynchronous Helper" style="text;html=1;strokeColor=none;fillColor=none;align=center;verticalAlign=middle;whiteSpace=wrap;rounded=0;" vertex="1" parent="2o6GESQ2wpf_LnaKLs66-31">
          <mxGeometry x="10.119999999999777" y="220.45000000000005" width="150" height="18.288703703703703" as="geometry" />
        </mxCell>
        <mxCell id="HNt6NsIe_tpLABc0ol-T-2" value="" style="rounded=0;whiteSpace=wrap;html=1;" vertex="1" parent="2o6GESQ2wpf_LnaKLs66-31">
          <mxGeometry x="19.999999999999773" y="238.74" width="250" height="112.56" as="geometry" />
        </mxCell>
        <mxCell id="HNt6NsIe_tpLABc0ol-T-3" value="Promise" style="html=1;" vertex="1" parent="2o6GESQ2wpf_LnaKLs66-31">
          <mxGeometry x="99.01999999999975" y="304.49" width="70.12" height="35.47" as="geometry" />
        </mxCell>
        <mxCell id="HNt6NsIe_tpLABc0ol-T-4" value="Promise" style="text;html=1;strokeColor=none;fillColor=none;align=center;verticalAlign=middle;whiteSpace=wrap;rounded=0;" vertex="1" parent="2o6GESQ2wpf_LnaKLs66-31">
          <mxGeometry x="19.997586206896244" y="238.737037037037" width="60" height="30" as="geometry" />
        </mxCell>
        <mxCell id="HNt6NsIe_tpLABc0ol-T-5" value="State" style="html=1;" vertex="1" parent="2o6GESQ2wpf_LnaKLs66-31">
          <mxGeometry x="99.99999999999977" y="250.1099999999999" width="69.14" height="40" as="geometry" />
        </mxCell>
        <mxCell id="HNt6NsIe_tpLABc0ol-T-6" value="Continuation" style="html=1;" vertex="1" parent="2o6GESQ2wpf_LnaKLs66-31">
          <mxGeometry x="183.29999999999973" y="250.1099999999999" width="76.82" height="35.73" as="geometry" />
        </mxCell>
        <mxCell id="HNt6NsIe_tpLABc0ol-T-7" value="Invocation" style="html=1;" vertex="1" parent="2o6GESQ2wpf_LnaKLs66-31">
          <mxGeometry x="180.1199999999999" y="301.80999999999995" width="80" height="38.15" as="geometry" />
        </mxCell>
        <mxCell id="HNt6NsIe_tpLABc0ol-T-8" value="" style="rounded=0;whiteSpace=wrap;html=1;" vertex="1" parent="2o6GESQ2wpf_LnaKLs66-31">
          <mxGeometry x="19.999999999999773" y="375.8399999999999" width="240.12" height="95.46" as="geometry" />
        </mxCell>
        <mxCell id="HNt6NsIe_tpLABc0ol-T-9" value="Subscription" style="text;html=1;strokeColor=none;fillColor=none;align=center;verticalAlign=middle;whiteSpace=wrap;rounded=0;" vertex="1" parent="2o6GESQ2wpf_LnaKLs66-31">
          <mxGeometry x="29.997586206896244" y="375.8370370370369" width="60" height="30" as="geometry" />
        </mxCell>
        <mxCell id="HNt6NsIe_tpLABc0ol-T-10" value="Signal" style="html=1;" vertex="1" parent="2o6GESQ2wpf_LnaKLs66-31">
          <mxGeometry x="49.99999999999977" y="413.56999999999994" width="69.14" height="40" as="geometry" />
        </mxCell>
        <mxCell id="HNt6NsIe_tpLABc0ol-T-11" value="Listener" style="html=1;" vertex="1" parent="2o6GESQ2wpf_LnaKLs66-31">
          <mxGeometry x="160.1199999999999" y="413.56999999999994" width="69.14" height="40" as="geometry" />
        </mxCell>
        <mxCell id="2o6GESQ2wpf_LnaKLs66-32" value="Request Layer" style="text;html=1;strokeColor=none;fillColor=none;align=center;verticalAlign=middle;whiteSpace=wrap;rounded=0;" parent="Q7ShDQGM0BOKLqNpAqQj-0" vertex="1">
          <mxGeometry x="9.67391304347826" y="10" width="77.39130434782608" height="20" as="geometry" />
        </mxCell>
      </root>
    </mxGraphModel>
  </diagram>
  <diagram name="dynamicview" id="zdWJvXy9zs9AFIaQY1XF">
    <mxGraphModel dx="2062" dy="1182" grid="1" gridSize="10" guides="1" tooltips="1" connect="1" arrows="1" fold="1" page="1" pageScale="1" pageWidth="850" pageHeight="1100" math="0" shadow="0">
      <root>
        <mxCell id="u7DnehlTPjtOf6njC9do-0" />
        <mxCell id="u7DnehlTPjtOf6njC9do-1" parent="u7DnehlTPjtOf6njC9do-0" />
        <mxCell id="u7DnehlTPjtOf6njC9do-2" style="edgeStyle=orthogonalEdgeStyle;rounded=0;orthogonalLoop=1;jettySize=auto;html=1;entryX=0.002;entryY=0.52;entryDx=0;entryDy=0;entryPerimeter=0;exitX=0.999;exitY=0.59;exitDx=0;exitDy=0;exitPerimeter=0;" parent="u7DnehlTPjtOf6njC9do-1" source="u7DnehlTPjtOf6njC9do-3" edge="1">
          <mxGeometry relative="1" as="geometry">
            <mxPoint x="834" y="566" as="sourcePoint" />
            <mxPoint x="480.78" y="662.0699999999999" as="targetPoint" />
            <Array as="points">
              <mxPoint x="829" y="566" />
            </Array>
          </mxGeometry>
        </mxCell>
        <mxCell id="u7DnehlTPjtOf6njC9do-3" value="" style="shape=folder;fontStyle=1;tabWidth=80;tabHeight=30;tabPosition=left;html=1;boundedLbl=1;strokeColor=#666666;fillColor=#f5f5f5;fontColor=#333333;" parent="u7DnehlTPjtOf6njC9do-1" vertex="1">
          <mxGeometry x="460" y="160" width="900" height="800" as="geometry" />
        </mxCell>
        <mxCell id="u7DnehlTPjtOf6njC9do-4" value="NadProxy" style="text;html=1;strokeColor=none;fillColor=none;align=center;verticalAlign=middle;whiteSpace=wrap;rounded=0;" parent="u7DnehlTPjtOf6njC9do-1" vertex="1">
          <mxGeometry x="480" y="170" width="40" height="20" as="geometry" />
        </mxCell>
        <mxCell id="oTIC_lHXOKQSenUGJ3io-6" style="edgeStyle=orthogonalEdgeStyle;rounded=0;orthogonalLoop=1;jettySize=auto;html=1;exitX=0;exitY=0.5;exitDx=0;exitDy=0;strokeColor=#FF0080;" parent="u7DnehlTPjtOf6njC9do-1" source="oTIC_lHXOKQSenUGJ3io-0" target="oTIC_lHXOKQSenUGJ3io-3" edge="1">
          <mxGeometry relative="1" as="geometry" />
        </mxCell>
        <mxCell id="oTIC_lHXOKQSenUGJ3io-55" style="edgeStyle=orthogonalEdgeStyle;rounded=0;orthogonalLoop=1;jettySize=auto;html=1;exitX=1;exitY=0.25;exitDx=0;exitDy=0;entryX=0;entryY=0.25;entryDx=0;entryDy=0;dashed=1;" parent="u7DnehlTPjtOf6njC9do-1" source="oTIC_lHXOKQSenUGJ3io-0" target="oTIC_lHXOKQSenUGJ3io-2" edge="1">
          <mxGeometry relative="1" as="geometry" />
        </mxCell>
        <mxCell id="oTIC_lHXOKQSenUGJ3io-0" value="someIP Wrapper" style="rounded=0;whiteSpace=wrap;html=1;fillColor=#dae8fc;strokeColor=#6c8ebf;" parent="u7DnehlTPjtOf6njC9do-1" vertex="1">
          <mxGeometry x="1180" y="880" width="120" height="60" as="geometry" />
        </mxCell>
        <mxCell id="oTIC_lHXOKQSenUGJ3io-43" style="edgeStyle=orthogonalEdgeStyle;rounded=0;orthogonalLoop=1;jettySize=auto;html=1;exitX=1;exitY=0.75;exitDx=0;exitDy=0;entryX=0.25;entryY=1;entryDx=0;entryDy=0;dashed=1;" parent="u7DnehlTPjtOf6njC9do-1" source="oTIC_lHXOKQSenUGJ3io-1" target="oTIC_lHXOKQSenUGJ3io-17" edge="1">
          <mxGeometry relative="1" as="geometry" />
        </mxCell>
        <mxCell id="oTIC_lHXOKQSenUGJ3io-1" value="Provisioning" style="rounded=0;whiteSpace=wrap;html=1;fillColor=#60a917;strokeColor=#2D7600;fontColor=#ffffff;" parent="u7DnehlTPjtOf6njC9do-1" vertex="1">
          <mxGeometry x="190" y="350" width="120" height="60" as="geometry" />
        </mxCell>
        <mxCell id="oTIC_lHXOKQSenUGJ3io-5" style="edgeStyle=orthogonalEdgeStyle;rounded=0;orthogonalLoop=1;jettySize=auto;html=1;strokeColor=#CC0066;" parent="u7DnehlTPjtOf6njC9do-1" source="oTIC_lHXOKQSenUGJ3io-2" target="oTIC_lHXOKQSenUGJ3io-0" edge="1">
          <mxGeometry relative="1" as="geometry" />
        </mxCell>
        <mxCell id="oTIC_lHXOKQSenUGJ3io-2" value="Nad Manager" style="rounded=0;whiteSpace=wrap;html=1;fillColor=#f5f5f5;strokeColor=#666666;fontColor=#333333;" parent="u7DnehlTPjtOf6njC9do-1" vertex="1">
          <mxGeometry x="1490" y="880" width="130" height="60" as="geometry" />
        </mxCell>
        <mxCell id="oTIC_lHXOKQSenUGJ3io-7" style="edgeStyle=orthogonalEdgeStyle;rounded=0;orthogonalLoop=1;jettySize=auto;html=1;exitX=1;exitY=0.5;exitDx=0;exitDy=0;" parent="u7DnehlTPjtOf6njC9do-1" source="oTIC_lHXOKQSenUGJ3io-3" target="oTIC_lHXOKQSenUGJ3io-4" edge="1">
          <mxGeometry relative="1" as="geometry" />
        </mxCell>
        <mxCell id="oTIC_lHXOKQSenUGJ3io-14" style="edgeStyle=orthogonalEdgeStyle;rounded=0;orthogonalLoop=1;jettySize=auto;html=1;exitX=0.5;exitY=0;exitDx=0;exitDy=0;entryX=0;entryY=0.5;entryDx=0;entryDy=0;strokeColor=#CC0066;" parent="u7DnehlTPjtOf6njC9do-1" source="oTIC_lHXOKQSenUGJ3io-3" target="oTIC_lHXOKQSenUGJ3io-29" edge="1">
          <mxGeometry relative="1" as="geometry">
            <Array as="points">
              <mxPoint x="820" y="640" />
              <mxPoint x="740" y="640" />
              <mxPoint x="740" y="505" />
            </Array>
          </mxGeometry>
        </mxCell>
        <mxCell id="oTIC_lHXOKQSenUGJ3io-22" style="edgeStyle=orthogonalEdgeStyle;rounded=0;orthogonalLoop=1;jettySize=auto;html=1;exitX=0;exitY=0.5;exitDx=0;exitDy=0;entryX=1;entryY=0.5;entryDx=0;entryDy=0;" parent="u7DnehlTPjtOf6njC9do-1" source="oTIC_lHXOKQSenUGJ3io-3" target="oTIC_lHXOKQSenUGJ3io-21" edge="1">
          <mxGeometry relative="1" as="geometry" />
        </mxCell>
        <mxCell id="oTIC_lHXOKQSenUGJ3io-3" value="request Manager" style="rounded=1;whiteSpace=wrap;html=1;fillColor=#dae8fc;strokeColor=#6c8ebf;" parent="u7DnehlTPjtOf6njC9do-1" vertex="1">
          <mxGeometry x="760" y="710" width="120" height="60" as="geometry" />
        </mxCell>
        <mxCell id="oTIC_lHXOKQSenUGJ3io-9" style="edgeStyle=orthogonalEdgeStyle;rounded=0;orthogonalLoop=1;jettySize=auto;html=1;" parent="u7DnehlTPjtOf6njC9do-1" source="oTIC_lHXOKQSenUGJ3io-4" target="oTIC_lHXOKQSenUGJ3io-8" edge="1">
          <mxGeometry relative="1" as="geometry" />
        </mxCell>
        <mxCell id="oTIC_lHXOKQSenUGJ3io-11" style="edgeStyle=orthogonalEdgeStyle;rounded=0;orthogonalLoop=1;jettySize=auto;html=1;exitX=0.908;exitY=1.017;exitDx=0;exitDy=0;exitPerimeter=0;" parent="u7DnehlTPjtOf6njC9do-1" source="oTIC_lHXOKQSenUGJ3io-4" target="oTIC_lHXOKQSenUGJ3io-10" edge="1">
          <mxGeometry relative="1" as="geometry">
            <Array as="points">
              <mxPoint x="1089" y="755" />
              <mxPoint x="1090" y="755" />
            </Array>
          </mxGeometry>
        </mxCell>
        <mxCell id="oTIC_lHXOKQSenUGJ3io-12" style="edgeStyle=orthogonalEdgeStyle;rounded=0;orthogonalLoop=1;jettySize=auto;html=1;exitX=0;exitY=0.75;exitDx=0;exitDy=0;entryX=1;entryY=0.75;entryDx=0;entryDy=0;dashed=1;" parent="u7DnehlTPjtOf6njC9do-1" source="oTIC_lHXOKQSenUGJ3io-4" target="oTIC_lHXOKQSenUGJ3io-3" edge="1">
          <mxGeometry relative="1" as="geometry" />
        </mxCell>
        <mxCell id="oTIC_lHXOKQSenUGJ3io-61" style="edgeStyle=orthogonalEdgeStyle;rounded=0;orthogonalLoop=1;jettySize=auto;html=1;exitX=1;exitY=0.5;exitDx=0;exitDy=0;entryX=0.5;entryY=1;entryDx=0;entryDy=0;" parent="u7DnehlTPjtOf6njC9do-1" source="oTIC_lHXOKQSenUGJ3io-4" target="oTIC_lHXOKQSenUGJ3io-58" edge="1">
          <mxGeometry relative="1" as="geometry">
            <Array as="points">
              <mxPoint x="1100" y="750" />
              <mxPoint x="1200" y="750" />
            </Array>
          </mxGeometry>
        </mxCell>
        <mxCell id="oTIC_lHXOKQSenUGJ3io-66" style="edgeStyle=orthogonalEdgeStyle;rounded=0;orthogonalLoop=1;jettySize=auto;html=1;exitX=1;exitY=0.75;exitDx=0;exitDy=0;" parent="u7DnehlTPjtOf6njC9do-1" source="oTIC_lHXOKQSenUGJ3io-4" target="oTIC_lHXOKQSenUGJ3io-65" edge="1">
          <mxGeometry relative="1" as="geometry" />
        </mxCell>
        <mxCell id="oTIC_lHXOKQSenUGJ3io-4" value="Request Factory" style="rounded=0;whiteSpace=wrap;html=1;fillColor=#dae8fc;strokeColor=#6c8ebf;" parent="u7DnehlTPjtOf6njC9do-1" vertex="1">
          <mxGeometry x="980" y="710" width="120" height="60" as="geometry" />
        </mxCell>
        <mxCell id="oTIC_lHXOKQSenUGJ3io-8" value="Provisioning Request" style="rounded=1;whiteSpace=wrap;html=1;fillColor=#dae8fc;strokeColor=#6c8ebf;" parent="u7DnehlTPjtOf6njC9do-1" vertex="1">
          <mxGeometry x="1090" y="580" width="120" height="60" as="geometry" />
        </mxCell>
        <mxCell id="oTIC_lHXOKQSenUGJ3io-10" value="Coding Request" style="rounded=1;whiteSpace=wrap;html=1;fillColor=#dae8fc;strokeColor=#6c8ebf;" parent="u7DnehlTPjtOf6njC9do-1" vertex="1">
          <mxGeometry x="1010" y="800" width="120" height="60" as="geometry" />
        </mxCell>
        <mxCell id="oTIC_lHXOKQSenUGJ3io-13" value="" style="rounded=1;whiteSpace=wrap;html=1;fillColor=#dae8fc;strokeColor=#6c8ebf;" parent="u7DnehlTPjtOf6njC9do-1" vertex="1">
          <mxGeometry x="750" y="390" width="270" height="230" as="geometry" />
        </mxCell>
        <mxCell id="oTIC_lHXOKQSenUGJ3io-67" style="edgeStyle=orthogonalEdgeStyle;rounded=0;orthogonalLoop=1;jettySize=auto;html=1;exitX=1;exitY=0.75;exitDx=0;exitDy=0;entryX=0.25;entryY=1;entryDx=0;entryDy=0;dashed=1;" parent="u7DnehlTPjtOf6njC9do-1" source="oTIC_lHXOKQSenUGJ3io-15" target="oTIC_lHXOKQSenUGJ3io-17" edge="1">
          <mxGeometry relative="1" as="geometry" />
        </mxCell>
        <mxCell id="oTIC_lHXOKQSenUGJ3io-15" value="Coding" style="rounded=0;whiteSpace=wrap;html=1;fillColor=#60a917;strokeColor=#2D7600;fontColor=#ffffff;" parent="u7DnehlTPjtOf6njC9do-1" vertex="1">
          <mxGeometry x="190" y="460" width="120" height="60" as="geometry" />
        </mxCell>
        <mxCell id="oTIC_lHXOKQSenUGJ3io-68" style="edgeStyle=orthogonalEdgeStyle;rounded=0;orthogonalLoop=1;jettySize=auto;html=1;exitX=1;exitY=0.75;exitDx=0;exitDy=0;entryX=0.25;entryY=1;entryDx=0;entryDy=0;dashed=1;" parent="u7DnehlTPjtOf6njC9do-1" source="oTIC_lHXOKQSenUGJ3io-16" target="oTIC_lHXOKQSenUGJ3io-17" edge="1">
          <mxGeometry relative="1" as="geometry" />
        </mxCell>
        <mxCell id="oTIC_lHXOKQSenUGJ3io-16" value="LPA" style="rounded=0;whiteSpace=wrap;html=1;fillColor=#60a917;strokeColor=#2D7600;fontColor=#ffffff;" parent="u7DnehlTPjtOf6njC9do-1" vertex="1">
          <mxGeometry x="190" y="560" width="120" height="60" as="geometry" />
        </mxCell>
        <mxCell id="oTIC_lHXOKQSenUGJ3io-18" style="edgeStyle=orthogonalEdgeStyle;rounded=0;orthogonalLoop=1;jettySize=auto;html=1;exitX=0;exitY=0.25;exitDx=0;exitDy=0;" parent="u7DnehlTPjtOf6njC9do-1" source="oTIC_lHXOKQSenUGJ3io-17" target="oTIC_lHXOKQSenUGJ3io-1" edge="1">
          <mxGeometry relative="1" as="geometry" />
        </mxCell>
        <mxCell id="oTIC_lHXOKQSenUGJ3io-19" style="edgeStyle=orthogonalEdgeStyle;rounded=0;orthogonalLoop=1;jettySize=auto;html=1;exitX=0;exitY=0.5;exitDx=0;exitDy=0;entryX=1;entryY=0.5;entryDx=0;entryDy=0;" parent="u7DnehlTPjtOf6njC9do-1" source="oTIC_lHXOKQSenUGJ3io-17" target="oTIC_lHXOKQSenUGJ3io-15" edge="1">
          <mxGeometry relative="1" as="geometry" />
        </mxCell>
        <mxCell id="oTIC_lHXOKQSenUGJ3io-20" style="edgeStyle=orthogonalEdgeStyle;rounded=0;orthogonalLoop=1;jettySize=auto;html=1;exitX=0;exitY=0.75;exitDx=0;exitDy=0;entryX=1;entryY=0.5;entryDx=0;entryDy=0;" parent="u7DnehlTPjtOf6njC9do-1" source="oTIC_lHXOKQSenUGJ3io-17" target="oTIC_lHXOKQSenUGJ3io-16" edge="1">
          <mxGeometry relative="1" as="geometry" />
        </mxCell>
        <mxCell id="oTIC_lHXOKQSenUGJ3io-46" style="edgeStyle=orthogonalEdgeStyle;rounded=0;orthogonalLoop=1;jettySize=auto;html=1;exitX=0.5;exitY=1;exitDx=0;exitDy=0;dashed=1;" parent="u7DnehlTPjtOf6njC9do-1" source="oTIC_lHXOKQSenUGJ3io-17" target="oTIC_lHXOKQSenUGJ3io-21" edge="1">
          <mxGeometry relative="1" as="geometry" />
        </mxCell>
        <mxCell id="oTIC_lHXOKQSenUGJ3io-64" style="edgeStyle=orthogonalEdgeStyle;rounded=0;orthogonalLoop=1;jettySize=auto;html=1;exitX=0.25;exitY=0;exitDx=0;exitDy=0;entryX=1;entryY=0.5;entryDx=0;entryDy=0;" parent="u7DnehlTPjtOf6njC9do-1" source="oTIC_lHXOKQSenUGJ3io-17" target="oTIC_lHXOKQSenUGJ3io-63" edge="1">
          <mxGeometry relative="1" as="geometry" />
        </mxCell>
        <mxCell id="oTIC_lHXOKQSenUGJ3io-17" value="Binder Wrapper" style="rounded=0;whiteSpace=wrap;html=1;fillColor=#dae8fc;strokeColor=#6c8ebf;" parent="u7DnehlTPjtOf6njC9do-1" vertex="1">
          <mxGeometry x="520" y="300" width="100" height="60" as="geometry" />
        </mxCell>
        <mxCell id="oTIC_lHXOKQSenUGJ3io-23" style="edgeStyle=orthogonalEdgeStyle;rounded=1;orthogonalLoop=1;jettySize=auto;html=1;exitX=1;exitY=0.75;exitDx=0;exitDy=0;entryX=0;entryY=0.75;entryDx=0;entryDy=0;dashed=1;" parent="u7DnehlTPjtOf6njC9do-1" source="oTIC_lHXOKQSenUGJ3io-21" target="oTIC_lHXOKQSenUGJ3io-3" edge="1">
          <mxGeometry relative="1" as="geometry" />
        </mxCell>
        <mxCell id="oTIC_lHXOKQSenUGJ3io-50" style="edgeStyle=orthogonalEdgeStyle;rounded=0;orthogonalLoop=1;jettySize=auto;html=1;exitX=0.75;exitY=0;exitDx=0;exitDy=0;entryX=0;entryY=0.5;entryDx=0;entryDy=0;dashed=1;strokeColor=#CC0066;" parent="u7DnehlTPjtOf6njC9do-1" source="oTIC_lHXOKQSenUGJ3io-21" target="oTIC_lHXOKQSenUGJ3io-13" edge="1">
          <mxGeometry relative="1" as="geometry" />
        </mxCell>
        <mxCell id="oTIC_lHXOKQSenUGJ3io-21" value="Asynchronous Manager" style="rounded=1;whiteSpace=wrap;html=1;fillColor=#dae8fc;strokeColor=#6c8ebf;" parent="u7DnehlTPjtOf6njC9do-1" vertex="1">
          <mxGeometry x="510" y="710" width="120" height="60" as="geometry" />
        </mxCell>
        <mxCell id="oTIC_lHXOKQSenUGJ3io-24" value="create Promise&amp;nbsp;" style="text;html=1;strokeColor=none;fillColor=none;align=center;verticalAlign=middle;whiteSpace=wrap;rounded=0;" parent="u7DnehlTPjtOf6njC9do-1" vertex="1">
          <mxGeometry x="650" y="720" width="90" height="20" as="geometry" />
        </mxCell>
        <mxCell id="oTIC_lHXOKQSenUGJ3io-27" value="Send request with promise" style="text;html=1;strokeColor=none;fillColor=none;align=center;verticalAlign=middle;whiteSpace=wrap;rounded=0;" parent="u7DnehlTPjtOf6njC9do-1" vertex="1">
          <mxGeometry x="830" y="670" width="100" height="20" as="geometry" />
        </mxCell>
        <mxCell id="oTIC_lHXOKQSenUGJ3io-29" value="" style="ellipse;whiteSpace=wrap;html=1;aspect=fixed;fillColor=#d5e8d4;strokeColor=#82b366;" parent="u7DnehlTPjtOf6njC9do-1" vertex="1">
          <mxGeometry x="760" y="490" width="30" height="30" as="geometry" />
        </mxCell>
        <mxCell id="oTIC_lHXOKQSenUGJ3io-30" value="" style="ellipse;whiteSpace=wrap;html=1;aspect=fixed;fillColor=#d5e8d4;strokeColor=#82b366;" parent="u7DnehlTPjtOf6njC9do-1" vertex="1">
          <mxGeometry x="790" y="490" width="30" height="30" as="geometry" />
        </mxCell>
        <mxCell id="oTIC_lHXOKQSenUGJ3io-52" style="edgeStyle=orthogonalEdgeStyle;rounded=0;orthogonalLoop=1;jettySize=auto;html=1;exitX=1;exitY=0.5;exitDx=0;exitDy=0;entryX=0;entryY=0.5;entryDx=0;entryDy=0;" parent="u7DnehlTPjtOf6njC9do-1" source="oTIC_lHXOKQSenUGJ3io-31" target="oTIC_lHXOKQSenUGJ3io-33" edge="1">
          <mxGeometry relative="1" as="geometry" />
        </mxCell>
        <mxCell id="oTIC_lHXOKQSenUGJ3io-53" style="edgeStyle=orthogonalEdgeStyle;rounded=0;orthogonalLoop=1;jettySize=auto;html=1;exitX=1;exitY=1;exitDx=0;exitDy=0;entryX=0;entryY=0.75;entryDx=0;entryDy=0;" parent="u7DnehlTPjtOf6njC9do-1" source="oTIC_lHXOKQSenUGJ3io-31" target="oTIC_lHXOKQSenUGJ3io-34" edge="1">
          <mxGeometry relative="1" as="geometry" />
        </mxCell>
        <mxCell id="oTIC_lHXOKQSenUGJ3io-31" value="" style="ellipse;whiteSpace=wrap;html=1;aspect=fixed;fillColor=#d5e8d4;strokeColor=#82b366;" parent="u7DnehlTPjtOf6njC9do-1" vertex="1">
          <mxGeometry x="820" y="490" width="30" height="30" as="geometry" />
        </mxCell>
        <mxCell id="oTIC_lHXOKQSenUGJ3io-33" value="worker" style="rounded=1;whiteSpace=wrap;html=1;fillColor=#ffffff;" parent="u7DnehlTPjtOf6njC9do-1" vertex="1">
          <mxGeometry x="900" y="460" width="90" height="40" as="geometry" />
        </mxCell>
        <mxCell id="oTIC_lHXOKQSenUGJ3io-54" style="edgeStyle=orthogonalEdgeStyle;rounded=0;orthogonalLoop=1;jettySize=auto;html=1;exitX=1;exitY=0.5;exitDx=0;exitDy=0;entryX=0.75;entryY=0;entryDx=0;entryDy=0;dashed=1;" parent="u7DnehlTPjtOf6njC9do-1" source="oTIC_lHXOKQSenUGJ3io-34" target="oTIC_lHXOKQSenUGJ3io-0" edge="1">
          <mxGeometry relative="1" as="geometry" />
        </mxCell>
        <mxCell id="oTIC_lHXOKQSenUGJ3io-34" value="worker" style="rounded=1;whiteSpace=wrap;html=1;fillColor=#ffffff;" parent="u7DnehlTPjtOf6njC9do-1" vertex="1">
          <mxGeometry x="900" y="530" width="90" height="40" as="geometry" />
        </mxCell>
        <mxCell id="oTIC_lHXOKQSenUGJ3io-42" style="edgeStyle=orthogonalEdgeStyle;rounded=0;orthogonalLoop=1;jettySize=auto;html=1;exitX=0.5;exitY=0;exitDx=0;exitDy=0;entryX=1;entryY=0.25;entryDx=0;entryDy=0;" parent="u7DnehlTPjtOf6njC9do-1" source="oTIC_lHXOKQSenUGJ3io-33" target="oTIC_lHXOKQSenUGJ3io-17" edge="1">
          <mxGeometry relative="1" as="geometry">
            <mxPoint x="1000" y="470" as="sourcePoint" />
          </mxGeometry>
        </mxCell>
        <mxCell id="oTIC_lHXOKQSenUGJ3io-47" value="Promise fullfill" style="text;html=1;strokeColor=none;fillColor=none;align=center;verticalAlign=middle;whiteSpace=wrap;rounded=0;" parent="u7DnehlTPjtOf6njC9do-1" vertex="1">
          <mxGeometry x="570" y="620" width="40" height="20" as="geometry" />
        </mxCell>
        <mxCell id="oTIC_lHXOKQSenUGJ3io-48" value="Response" style="text;html=1;strokeColor=none;fillColor=none;align=center;verticalAlign=middle;whiteSpace=wrap;rounded=0;" parent="u7DnehlTPjtOf6njC9do-1" vertex="1">
          <mxGeometry x="500" y="410" width="40" height="20" as="geometry" />
        </mxCell>
        <mxCell id="oTIC_lHXOKQSenUGJ3io-49" value="sendRequest" style="text;html=1;strokeColor=none;fillColor=none;align=center;verticalAlign=middle;whiteSpace=wrap;rounded=0;" parent="u7DnehlTPjtOf6njC9do-1" vertex="1">
          <mxGeometry x="950" y="340" width="70" height="20" as="geometry" />
        </mxCell>
        <mxCell id="oTIC_lHXOKQSenUGJ3io-51" value="invoke continuation&amp;nbsp;" style="text;html=1;strokeColor=none;fillColor=none;align=center;verticalAlign=middle;whiteSpace=wrap;rounded=0;" parent="u7DnehlTPjtOf6njC9do-1" vertex="1">
          <mxGeometry x="600" y="540" width="40" height="20" as="geometry" />
        </mxCell>
        <mxCell id="oTIC_lHXOKQSenUGJ3io-56" value="response" style="text;html=1;strokeColor=none;fillColor=none;align=center;verticalAlign=middle;whiteSpace=wrap;rounded=0;" parent="u7DnehlTPjtOf6njC9do-1" vertex="1">
          <mxGeometry x="1380" y="870" width="40" height="20" as="geometry" />
        </mxCell>
        <mxCell id="oTIC_lHXOKQSenUGJ3io-57" value="request" style="text;html=1;strokeColor=none;fillColor=none;align=center;verticalAlign=middle;whiteSpace=wrap;rounded=0;" parent="u7DnehlTPjtOf6njC9do-1" vertex="1">
          <mxGeometry x="1380" y="920" width="40" height="20" as="geometry" />
        </mxCell>
        <mxCell id="oTIC_lHXOKQSenUGJ3io-58" value="LPA request" style="rounded=1;whiteSpace=wrap;html=1;fillColor=#dae8fc;strokeColor=#6c8ebf;" parent="u7DnehlTPjtOf6njC9do-1" vertex="1">
          <mxGeometry x="1150" y="690" width="100" height="40" as="geometry" />
        </mxCell>
        <mxCell id="oTIC_lHXOKQSenUGJ3io-62" value="invoke continuation&amp;nbsp;" style="text;html=1;strokeColor=none;fillColor=none;align=center;verticalAlign=middle;whiteSpace=wrap;rounded=0;" parent="u7DnehlTPjtOf6njC9do-1" vertex="1">
          <mxGeometry x="1210" y="520" width="40" height="20" as="geometry" />
        </mxCell>
        <mxCell id="oTIC_lHXOKQSenUGJ3io-69" style="edgeStyle=orthogonalEdgeStyle;rounded=0;orthogonalLoop=1;jettySize=auto;html=1;exitX=1;exitY=0.75;exitDx=0;exitDy=0;dashed=1;" parent="u7DnehlTPjtOf6njC9do-1" source="oTIC_lHXOKQSenUGJ3io-63" edge="1">
          <mxGeometry relative="1" as="geometry">
            <mxPoint x="550" y="360" as="targetPoint" />
            <Array as="points">
              <mxPoint x="540" y="695" />
              <mxPoint x="540" y="360" />
            </Array>
          </mxGeometry>
        </mxCell>
        <mxCell id="oTIC_lHXOKQSenUGJ3io-63" value="Diagnostic" style="rounded=0;whiteSpace=wrap;html=1;fillColor=#60a917;strokeColor=#2D7600;fontColor=#ffffff;" parent="u7DnehlTPjtOf6njC9do-1" vertex="1">
          <mxGeometry x="190" y="650" width="120" height="60" as="geometry" />
        </mxCell>
        <mxCell id="oTIC_lHXOKQSenUGJ3io-65" value="Diagnostic request" style="rounded=1;whiteSpace=wrap;html=1;fillColor=#dae8fc;strokeColor=#6c8ebf;" parent="u7DnehlTPjtOf6njC9do-1" vertex="1">
          <mxGeometry x="1150" y="770" width="100" height="40" as="geometry" />
        </mxCell>
        <mxCell id="oTIC_lHXOKQSenUGJ3io-70" value="" style="rounded=0;whiteSpace=wrap;html=1;fillColor=none;gradientColor=#ffffff;" parent="u7DnehlTPjtOf6njC9do-1" vertex="1">
          <mxGeometry x="760" y="490" width="100" height="30" as="geometry" />
        </mxCell>
        <mxCell id="oTIC_lHXOKQSenUGJ3io-71" value="" style="rounded=0;whiteSpace=wrap;html=1;strokeColor=#d6b656;fillColor=none;" parent="u7DnehlTPjtOf6njC9do-1" vertex="1">
          <mxGeometry x="890" y="440" width="110" height="150" as="geometry" />
        </mxCell>
        <mxCell id="oTIC_lHXOKQSenUGJ3io-73" value="Task executor" style="text;html=1;strokeColor=none;fillColor=none;align=center;verticalAlign=middle;whiteSpace=wrap;rounded=0;" parent="u7DnehlTPjtOf6njC9do-1" vertex="1">
          <mxGeometry x="760" y="400" width="40" height="20" as="geometry" />
        </mxCell>
        <mxCell id="oTIC_lHXOKQSenUGJ3io-74" value="thread pool" style="text;html=1;strokeColor=none;fillColor=none;align=center;verticalAlign=middle;whiteSpace=wrap;rounded=0;" parent="u7DnehlTPjtOf6njC9do-1" vertex="1">
          <mxGeometry x="920" y="590" width="70" height="20" as="geometry" />
        </mxCell>
        <mxCell id="oTIC_lHXOKQSenUGJ3io-75" value="task queue" style="text;html=1;strokeColor=none;fillColor=none;align=center;verticalAlign=middle;whiteSpace=wrap;rounded=0;" parent="u7DnehlTPjtOf6njC9do-1" vertex="1">
          <mxGeometry x="777.5" y="520" width="65" height="20" as="geometry" />
        </mxCell>
        <mxCell id="oTIC_lHXOKQSenUGJ3io-77" value="create request" style="text;html=1;strokeColor=none;fillColor=none;align=center;verticalAlign=middle;whiteSpace=wrap;rounded=0;" parent="u7DnehlTPjtOf6njC9do-1" vertex="1">
          <mxGeometry x="890" y="720" width="80" height="20" as="geometry" />
        </mxCell>
        <mxCell id="oTIC_lHXOKQSenUGJ3io-78" value="" style="rounded=0;whiteSpace=wrap;html=1;fillColor=none;gradientColor=none;" parent="u7DnehlTPjtOf6njC9do-1" vertex="1">
          <mxGeometry x="1150" y="1000" width="230" height="190" as="geometry" />
        </mxCell>
        <mxCell id="oTIC_lHXOKQSenUGJ3io-79" value="Key" style="text;html=1;strokeColor=none;fillColor=none;align=center;verticalAlign=middle;whiteSpace=wrap;rounded=0;" parent="u7DnehlTPjtOf6njC9do-1" vertex="1">
          <mxGeometry x="1160" y="1010" width="40" height="20" as="geometry" />
        </mxCell>
        <mxCell id="oTIC_lHXOKQSenUGJ3io-81" value="" style="endArrow=classic;html=1;rounded=0;" parent="u7DnehlTPjtOf6njC9do-1" edge="1">
          <mxGeometry width="50" height="50" relative="1" as="geometry">
            <mxPoint x="1160" y="1050" as="sourcePoint" />
            <mxPoint x="1220" y="1050" as="targetPoint" />
          </mxGeometry>
        </mxCell>
        <mxCell id="oTIC_lHXOKQSenUGJ3io-82" value="Request call" style="text;html=1;strokeColor=none;fillColor=none;align=center;verticalAlign=middle;whiteSpace=wrap;rounded=0;" parent="u7DnehlTPjtOf6njC9do-1" vertex="1">
          <mxGeometry x="1233" y="1040" width="85" height="20" as="geometry" />
        </mxCell>
        <mxCell id="oTIC_lHXOKQSenUGJ3io-83" value="" style="endArrow=classic;html=1;dashed=1;" parent="u7DnehlTPjtOf6njC9do-1" edge="1">
          <mxGeometry width="50" height="50" relative="1" as="geometry">
            <mxPoint x="1160" y="1070" as="sourcePoint" />
            <mxPoint x="1220" y="1070" as="targetPoint" />
          </mxGeometry>
        </mxCell>
        <mxCell id="oTIC_lHXOKQSenUGJ3io-84" value="Response call" style="text;html=1;strokeColor=none;fillColor=none;align=center;verticalAlign=middle;whiteSpace=wrap;rounded=0;" parent="u7DnehlTPjtOf6njC9do-1" vertex="1">
          <mxGeometry x="1235" y="1060" width="85" height="20" as="geometry" />
        </mxCell>
        <mxCell id="oTIC_lHXOKQSenUGJ3io-85" value="" style="endArrow=classic;html=1;strokeColor=#CC0066;" parent="u7DnehlTPjtOf6njC9do-1" edge="1">
          <mxGeometry width="50" height="50" relative="1" as="geometry">
            <mxPoint x="1160" y="1100" as="sourcePoint" />
            <mxPoint x="1220" y="1100" as="targetPoint" />
          </mxGeometry>
        </mxCell>
        <mxCell id="oTIC_lHXOKQSenUGJ3io-86" value="Asynchronous call" style="text;html=1;strokeColor=none;fillColor=none;align=center;verticalAlign=middle;whiteSpace=wrap;rounded=0;" parent="u7DnehlTPjtOf6njC9do-1" vertex="1">
          <mxGeometry x="1235" y="1090" width="115" height="20" as="geometry" />
        </mxCell>
        <mxCell id="oTIC_lHXOKQSenUGJ3io-90" value="" style="rounded=0;whiteSpace=wrap;html=1;fillColor=#60a917;strokeColor=#2D7600;fontColor=#ffffff;" parent="u7DnehlTPjtOf6njC9do-1" vertex="1">
          <mxGeometry x="1162" y="1150" width="70" height="30" as="geometry" />
        </mxCell>
        <mxCell id="oTIC_lHXOKQSenUGJ3io-91" value="External entity" style="text;html=1;strokeColor=none;fillColor=none;align=center;verticalAlign=middle;whiteSpace=wrap;rounded=0;" parent="u7DnehlTPjtOf6njC9do-1" vertex="1">
          <mxGeometry x="1235" y="1160" width="85" height="20" as="geometry" />
        </mxCell>
        <mxCell id="oTIC_lHXOKQSenUGJ3io-92" value="" style="endArrow=classic;html=1;strokeColor=#CC0066;dashed=1;" parent="u7DnehlTPjtOf6njC9do-1" edge="1">
          <mxGeometry width="50" height="50" relative="1" as="geometry">
            <mxPoint x="1160" y="1120" as="sourcePoint" />
            <mxPoint x="1220" y="1120" as="targetPoint" />
          </mxGeometry>
        </mxCell>
      </root>
    </mxGraphModel>
  </diagram>
  <diagram name="HL_dynamicview" id="fas0PRrKiUcLTYrYI_8z">
    <mxGraphModel dx="1266" dy="658" grid="1" gridSize="10" guides="1" tooltips="1" connect="1" arrows="1" fold="1" page="1" pageScale="1" pageWidth="850" pageHeight="1100" math="0" shadow="0">
      <root>
        <mxCell id="QtvFTy6N0q6erhGmj1na-0" />
        <mxCell id="QtvFTy6N0q6erhGmj1na-1" parent="QtvFTy6N0q6erhGmj1na-0" />
        <mxCell id="QtvFTy6N0q6erhGmj1na-2" style="edgeStyle=orthogonalEdgeStyle;rounded=0;orthogonalLoop=1;jettySize=auto;html=1;entryX=0.002;entryY=0.52;entryDx=0;entryDy=0;entryPerimeter=0;exitX=0.999;exitY=0.59;exitDx=0;exitDy=0;exitPerimeter=0;" parent="QtvFTy6N0q6erhGmj1na-1" source="QtvFTy6N0q6erhGmj1na-3" edge="1">
          <mxGeometry relative="1" as="geometry">
            <mxPoint x="834" y="566" as="sourcePoint" />
            <mxPoint x="480.78" y="662.0699999999999" as="targetPoint" />
            <Array as="points">
              <mxPoint x="829" y="566" />
            </Array>
          </mxGeometry>
        </mxCell>
        <mxCell id="QtvFTy6N0q6erhGmj1na-3" value="" style="shape=folder;fontStyle=1;tabWidth=80;tabHeight=30;tabPosition=left;html=1;boundedLbl=1;strokeColor=#666666;fillColor=#f5f5f5;fontColor=#333333;" parent="QtvFTy6N0q6erhGmj1na-1" vertex="1">
          <mxGeometry x="460" y="280" width="900" height="760" as="geometry" />
        </mxCell>
        <mxCell id="QtvFTy6N0q6erhGmj1na-4" value="NadProxy" style="text;html=1;strokeColor=none;fillColor=none;align=center;verticalAlign=middle;whiteSpace=wrap;rounded=0;" parent="QtvFTy6N0q6erhGmj1na-1" vertex="1">
          <mxGeometry x="480" y="290" width="40" height="20" as="geometry" />
        </mxCell>
        <mxCell id="QtvFTy6N0q6erhGmj1na-5" style="edgeStyle=orthogonalEdgeStyle;rounded=0;orthogonalLoop=1;jettySize=auto;html=1;exitX=0;exitY=0.5;exitDx=0;exitDy=0;" parent="QtvFTy6N0q6erhGmj1na-1" source="QtvFTy6N0q6erhGmj1na-7" target="QtvFTy6N0q6erhGmj1na-15" edge="1">
          <mxGeometry relative="1" as="geometry" />
        </mxCell>
        <mxCell id="QtvFTy6N0q6erhGmj1na-7" value="someIP Sub" style="rounded=0;whiteSpace=wrap;html=1;fillColor=#dae8fc;strokeColor=#6c8ebf;" parent="QtvFTy6N0q6erhGmj1na-1" vertex="1">
          <mxGeometry x="1180" y="880" width="120" height="120" as="geometry" />
        </mxCell>
        <mxCell id="QtvFTy6N0q6erhGmj1na-9" value="Provisioning" style="rounded=0;whiteSpace=wrap;html=1;fillColor=#60a917;strokeColor=#2D7600;fontColor=#ffffff;" parent="QtvFTy6N0q6erhGmj1na-1" vertex="1">
          <mxGeometry x="380" y="350" width="70" height="30" as="geometry" />
        </mxCell>
        <mxCell id="QtvFTy6N0q6erhGmj1na-11" value="Nad Manager" style="rounded=0;whiteSpace=wrap;html=1;fillColor=#60a917;strokeColor=#2D7600;fontColor=#ffffff;" parent="QtvFTy6N0q6erhGmj1na-1" vertex="1">
          <mxGeometry x="1380" y="880" width="60" height="30" as="geometry" />
        </mxCell>
        <mxCell id="QtvFTy6N0q6erhGmj1na-12" style="edgeStyle=orthogonalEdgeStyle;rounded=0;orthogonalLoop=1;jettySize=auto;html=1;exitX=1;exitY=0.5;exitDx=0;exitDy=0;" parent="QtvFTy6N0q6erhGmj1na-1" source="QtvFTy6N0q6erhGmj1na-15" target="QtvFTy6N0q6erhGmj1na-21" edge="1">
          <mxGeometry relative="1" as="geometry" />
        </mxCell>
        <mxCell id="QtvFTy6N0q6erhGmj1na-14" style="edgeStyle=orthogonalEdgeStyle;rounded=0;orthogonalLoop=1;jettySize=auto;html=1;exitX=0;exitY=0.5;exitDx=0;exitDy=0;entryX=1;entryY=0.5;entryDx=0;entryDy=0;" parent="QtvFTy6N0q6erhGmj1na-1" source="QtvFTy6N0q6erhGmj1na-15" target="QtvFTy6N0q6erhGmj1na-37" edge="1">
          <mxGeometry relative="1" as="geometry" />
        </mxCell>
        <mxCell id="QtvFTy6N0q6erhGmj1na-103" style="edgeStyle=orthogonalEdgeStyle;rounded=0;orthogonalLoop=1;jettySize=auto;html=1;entryX=0.286;entryY=1;entryDx=0;entryDy=0;entryPerimeter=0;endArrow=classic;endFill=1;strokeColor=#000000;" parent="QtvFTy6N0q6erhGmj1na-1" source="QtvFTy6N0q6erhGmj1na-15" target="QtvFTy6N0q6erhGmj1na-24" edge="1">
          <mxGeometry relative="1" as="geometry" />
        </mxCell>
        <mxCell id="QtvFTy6N0q6erhGmj1na-15" value="request Manager" style="rounded=1;whiteSpace=wrap;html=1;fillColor=#dae8fc;strokeColor=#6c8ebf;" parent="QtvFTy6N0q6erhGmj1na-1" vertex="1">
          <mxGeometry x="760" y="710" width="120" height="60" as="geometry" />
        </mxCell>
        <mxCell id="QtvFTy6N0q6erhGmj1na-16" style="edgeStyle=orthogonalEdgeStyle;rounded=0;orthogonalLoop=1;jettySize=auto;html=1;" parent="QtvFTy6N0q6erhGmj1na-1" source="QtvFTy6N0q6erhGmj1na-21" target="QtvFTy6N0q6erhGmj1na-22" edge="1">
          <mxGeometry relative="1" as="geometry" />
        </mxCell>
        <mxCell id="QtvFTy6N0q6erhGmj1na-17" style="edgeStyle=orthogonalEdgeStyle;rounded=0;orthogonalLoop=1;jettySize=auto;html=1;exitX=0.908;exitY=1.017;exitDx=0;exitDy=0;exitPerimeter=0;" parent="QtvFTy6N0q6erhGmj1na-1" source="QtvFTy6N0q6erhGmj1na-21" target="QtvFTy6N0q6erhGmj1na-23" edge="1">
          <mxGeometry relative="1" as="geometry">
            <Array as="points">
              <mxPoint x="1089" y="755" />
              <mxPoint x="1090" y="755" />
            </Array>
          </mxGeometry>
        </mxCell>
        <mxCell id="QtvFTy6N0q6erhGmj1na-18" style="edgeStyle=orthogonalEdgeStyle;rounded=0;orthogonalLoop=1;jettySize=auto;html=1;exitX=0;exitY=0.75;exitDx=0;exitDy=0;entryX=1;entryY=0.75;entryDx=0;entryDy=0;dashed=1;" parent="QtvFTy6N0q6erhGmj1na-1" source="QtvFTy6N0q6erhGmj1na-21" target="QtvFTy6N0q6erhGmj1na-15" edge="1">
          <mxGeometry relative="1" as="geometry" />
        </mxCell>
        <mxCell id="QtvFTy6N0q6erhGmj1na-19" style="edgeStyle=orthogonalEdgeStyle;rounded=0;orthogonalLoop=1;jettySize=auto;html=1;exitX=1;exitY=0.5;exitDx=0;exitDy=0;entryX=0.5;entryY=1;entryDx=0;entryDy=0;" parent="QtvFTy6N0q6erhGmj1na-1" source="QtvFTy6N0q6erhGmj1na-21" target="QtvFTy6N0q6erhGmj1na-55" edge="1">
          <mxGeometry relative="1" as="geometry">
            <Array as="points">
              <mxPoint x="1100" y="750" />
              <mxPoint x="1200" y="750" />
            </Array>
          </mxGeometry>
        </mxCell>
        <mxCell id="QtvFTy6N0q6erhGmj1na-20" style="edgeStyle=orthogonalEdgeStyle;rounded=0;orthogonalLoop=1;jettySize=auto;html=1;exitX=1;exitY=0.75;exitDx=0;exitDy=0;" parent="QtvFTy6N0q6erhGmj1na-1" source="QtvFTy6N0q6erhGmj1na-21" target="QtvFTy6N0q6erhGmj1na-59" edge="1">
          <mxGeometry relative="1" as="geometry" />
        </mxCell>
        <mxCell id="QtvFTy6N0q6erhGmj1na-21" value="Request Factory" style="rounded=0;whiteSpace=wrap;html=1;fillColor=#dae8fc;strokeColor=#6c8ebf;" parent="QtvFTy6N0q6erhGmj1na-1" vertex="1">
          <mxGeometry x="980" y="710" width="120" height="60" as="geometry" />
        </mxCell>
        <mxCell id="QtvFTy6N0q6erhGmj1na-22" value="Provisioning Request" style="rounded=1;whiteSpace=wrap;html=1;fillColor=#dae8fc;strokeColor=#6c8ebf;" parent="QtvFTy6N0q6erhGmj1na-1" vertex="1">
          <mxGeometry x="1090" y="580" width="120" height="60" as="geometry" />
        </mxCell>
        <mxCell id="QtvFTy6N0q6erhGmj1na-23" value="Coding Request" style="rounded=1;whiteSpace=wrap;html=1;fillColor=#dae8fc;strokeColor=#6c8ebf;" parent="QtvFTy6N0q6erhGmj1na-1" vertex="1">
          <mxGeometry x="1010" y="800" width="120" height="60" as="geometry" />
        </mxCell>
        <mxCell id="QtvFTy6N0q6erhGmj1na-104" style="edgeStyle=orthogonalEdgeStyle;rounded=0;orthogonalLoop=1;jettySize=auto;html=1;exitX=0;exitY=0.5;exitDx=0;exitDy=0;entryX=1;entryY=0.75;entryDx=0;entryDy=0;endArrow=classic;endFill=1;strokeColor=#000000;" parent="QtvFTy6N0q6erhGmj1na-1" source="QtvFTy6N0q6erhGmj1na-24" target="QtvFTy6N0q6erhGmj1na-34" edge="1">
          <mxGeometry relative="1" as="geometry" />
        </mxCell>
        <mxCell id="QtvFTy6N0q6erhGmj1na-24" value="" style="rounded=1;whiteSpace=wrap;html=1;fillColor=#dae8fc;strokeColor=#6c8ebf;" parent="QtvFTy6N0q6erhGmj1na-1" vertex="1">
          <mxGeometry x="760" y="430" width="210" height="110" as="geometry" />
        </mxCell>
        <mxCell id="QtvFTy6N0q6erhGmj1na-26" value="Coding" style="rounded=0;whiteSpace=wrap;html=1;fillColor=#60a917;strokeColor=#2D7600;fontColor=#ffffff;" parent="QtvFTy6N0q6erhGmj1na-1" vertex="1">
          <mxGeometry x="380" y="400" width="70" height="30" as="geometry" />
        </mxCell>
        <mxCell id="QtvFTy6N0q6erhGmj1na-28" value="LPA" style="rounded=0;whiteSpace=wrap;html=1;fillColor=#60a917;strokeColor=#2D7600;fontColor=#ffffff;" parent="QtvFTy6N0q6erhGmj1na-1" vertex="1">
          <mxGeometry x="380" y="440" width="70" height="30" as="geometry" />
        </mxCell>
        <mxCell id="QtvFTy6N0q6erhGmj1na-34" value="Binder Proxy" style="rounded=0;whiteSpace=wrap;html=1;fillColor=#dae8fc;strokeColor=#6c8ebf;" parent="QtvFTy6N0q6erhGmj1na-1" vertex="1">
          <mxGeometry x="550" y="350" width="110" height="180" as="geometry" />
        </mxCell>
        <mxCell id="QtvFTy6N0q6erhGmj1na-35" style="edgeStyle=orthogonalEdgeStyle;rounded=1;orthogonalLoop=1;jettySize=auto;html=1;exitX=1;exitY=0.75;exitDx=0;exitDy=0;entryX=0;entryY=0.75;entryDx=0;entryDy=0;dashed=1;" parent="QtvFTy6N0q6erhGmj1na-1" source="QtvFTy6N0q6erhGmj1na-37" target="QtvFTy6N0q6erhGmj1na-15" edge="1">
          <mxGeometry relative="1" as="geometry" />
        </mxCell>
        <mxCell id="QtvFTy6N0q6erhGmj1na-37" value="Asynchronous Manager" style="rounded=1;whiteSpace=wrap;html=1;fillColor=#dae8fc;strokeColor=#6c8ebf;" parent="QtvFTy6N0q6erhGmj1na-1" vertex="1">
          <mxGeometry x="510" y="710" width="120" height="60" as="geometry" />
        </mxCell>
        <mxCell id="QtvFTy6N0q6erhGmj1na-55" value="LPA request" style="rounded=1;whiteSpace=wrap;html=1;fillColor=#dae8fc;strokeColor=#6c8ebf;" parent="QtvFTy6N0q6erhGmj1na-1" vertex="1">
          <mxGeometry x="1150" y="690" width="100" height="40" as="geometry" />
        </mxCell>
        <mxCell id="QtvFTy6N0q6erhGmj1na-58" value="Diagnostic" style="rounded=0;whiteSpace=wrap;html=1;fillColor=#60a917;strokeColor=#2D7600;fontColor=#ffffff;" parent="QtvFTy6N0q6erhGmj1na-1" vertex="1">
          <mxGeometry x="380" y="480" width="70" height="30" as="geometry" />
        </mxCell>
        <mxCell id="QtvFTy6N0q6erhGmj1na-59" value="Diagnostic request" style="rounded=1;whiteSpace=wrap;html=1;fillColor=#dae8fc;strokeColor=#6c8ebf;" parent="QtvFTy6N0q6erhGmj1na-1" vertex="1">
          <mxGeometry x="1150" y="770" width="100" height="40" as="geometry" />
        </mxCell>
        <mxCell id="QtvFTy6N0q6erhGmj1na-62" value="Task executor" style="text;html=1;strokeColor=none;fillColor=none;align=center;verticalAlign=middle;whiteSpace=wrap;rounded=0;" parent="QtvFTy6N0q6erhGmj1na-1" vertex="1">
          <mxGeometry x="780" y="440" width="40" height="20" as="geometry" />
        </mxCell>
        <mxCell id="QtvFTy6N0q6erhGmj1na-66" value="" style="rounded=0;whiteSpace=wrap;html=1;fillColor=none;gradientColor=none;" parent="QtvFTy6N0q6erhGmj1na-1" vertex="1">
          <mxGeometry x="1140" y="1070" width="230" height="130" as="geometry" />
        </mxCell>
        <mxCell id="QtvFTy6N0q6erhGmj1na-67" value="Key" style="text;html=1;strokeColor=none;fillColor=none;align=center;verticalAlign=middle;whiteSpace=wrap;rounded=0;" parent="QtvFTy6N0q6erhGmj1na-1" vertex="1">
          <mxGeometry x="1150" y="1080" width="40" height="20" as="geometry" />
        </mxCell>
        <mxCell id="QtvFTy6N0q6erhGmj1na-68" value="" style="endArrow=classic;html=1;rounded=0;" parent="QtvFTy6N0q6erhGmj1na-1" edge="1">
          <mxGeometry width="50" height="50" relative="1" as="geometry">
            <mxPoint x="1150" y="1120" as="sourcePoint" />
            <mxPoint x="1210" y="1120" as="targetPoint" />
          </mxGeometry>
        </mxCell>
        <mxCell id="QtvFTy6N0q6erhGmj1na-69" value="Request call" style="text;html=1;strokeColor=none;fillColor=none;align=center;verticalAlign=middle;whiteSpace=wrap;rounded=0;" parent="QtvFTy6N0q6erhGmj1na-1" vertex="1">
          <mxGeometry x="1223" y="1110" width="85" height="20" as="geometry" />
        </mxCell>
        <mxCell id="QtvFTy6N0q6erhGmj1na-70" value="" style="endArrow=classic;html=1;dashed=1;" parent="QtvFTy6N0q6erhGmj1na-1" edge="1">
          <mxGeometry width="50" height="50" relative="1" as="geometry">
            <mxPoint x="1150" y="1140" as="sourcePoint" />
            <mxPoint x="1210" y="1140" as="targetPoint" />
          </mxGeometry>
        </mxCell>
        <mxCell id="QtvFTy6N0q6erhGmj1na-71" value="Response call" style="text;html=1;strokeColor=none;fillColor=none;align=center;verticalAlign=middle;whiteSpace=wrap;rounded=0;" parent="QtvFTy6N0q6erhGmj1na-1" vertex="1">
          <mxGeometry x="1225" y="1130" width="85" height="20" as="geometry" />
        </mxCell>
        <mxCell id="QtvFTy6N0q6erhGmj1na-74" value="" style="rounded=0;whiteSpace=wrap;html=1;fillColor=#60a917;strokeColor=#2D7600;fontColor=#ffffff;" parent="QtvFTy6N0q6erhGmj1na-1" vertex="1">
          <mxGeometry x="1150" y="1160" width="70" height="30" as="geometry" />
        </mxCell>
        <mxCell id="QtvFTy6N0q6erhGmj1na-75" value="External entity" style="text;html=1;strokeColor=none;fillColor=none;align=center;verticalAlign=middle;whiteSpace=wrap;rounded=0;" parent="QtvFTy6N0q6erhGmj1na-1" vertex="1">
          <mxGeometry x="1225" y="1165" width="85" height="20" as="geometry" />
        </mxCell>
        <mxCell id="QtvFTy6N0q6erhGmj1na-77" value="" style="whiteSpace=wrap;html=1;aspect=fixed;fillColor=#bac8d3;strokeColor=#23445d;" parent="QtvFTy6N0q6erhGmj1na-1" vertex="1">
          <mxGeometry x="1290" y="890" width="20" height="20" as="geometry" />
        </mxCell>
        <mxCell id="QtvFTy6N0q6erhGmj1na-82" style="edgeStyle=orthogonalEdgeStyle;rounded=0;orthogonalLoop=1;jettySize=auto;html=1;exitX=0;exitY=0.75;exitDx=0;exitDy=0;entryX=1;entryY=0.75;entryDx=0;entryDy=0;strokeColor=#000000;dashed=1;endArrow=none;endFill=0;" parent="QtvFTy6N0q6erhGmj1na-1" source="QtvFTy6N0q6erhGmj1na-78" target="QtvFTy6N0q6erhGmj1na-77" edge="1">
          <mxGeometry relative="1" as="geometry" />
        </mxCell>
        <mxCell id="QtvFTy6N0q6erhGmj1na-78" value="" style="whiteSpace=wrap;html=1;aspect=fixed;fillColor=#bac8d3;strokeColor=#23445d;" parent="QtvFTy6N0q6erhGmj1na-1" vertex="1">
          <mxGeometry x="1350" y="890" width="20" height="20" as="geometry" />
        </mxCell>
        <mxCell id="QtvFTy6N0q6erhGmj1na-111" style="edgeStyle=orthogonalEdgeStyle;rounded=0;orthogonalLoop=1;jettySize=auto;html=1;exitX=1;exitY=0.5;exitDx=0;exitDy=0;entryX=0;entryY=0.5;entryDx=0;entryDy=0;endArrow=none;endFill=0;strokeColor=#000000;dashed=1;" parent="QtvFTy6N0q6erhGmj1na-1" source="QtvFTy6N0q6erhGmj1na-79" target="QtvFTy6N0q6erhGmj1na-80" edge="1">
          <mxGeometry relative="1" as="geometry" />
        </mxCell>
        <mxCell id="QtvFTy6N0q6erhGmj1na-79" value="" style="whiteSpace=wrap;html=1;aspect=fixed;fillColor=#bac8d3;strokeColor=#23445d;" parent="QtvFTy6N0q6erhGmj1na-1" vertex="1">
          <mxGeometry x="1290" y="930" width="20" height="20" as="geometry" />
        </mxCell>
        <mxCell id="QtvFTy6N0q6erhGmj1na-80" value="" style="whiteSpace=wrap;html=1;aspect=fixed;fillColor=#bac8d3;strokeColor=#23445d;" parent="QtvFTy6N0q6erhGmj1na-1" vertex="1">
          <mxGeometry x="1350" y="930" width="20" height="20" as="geometry" />
        </mxCell>
        <mxCell id="QtvFTy6N0q6erhGmj1na-86" style="edgeStyle=orthogonalEdgeStyle;rounded=0;orthogonalLoop=1;jettySize=auto;html=1;exitX=1;exitY=0.5;exitDx=0;exitDy=0;entryX=0;entryY=0.5;entryDx=0;entryDy=0;dashed=1;endArrow=none;endFill=0;strokeColor=#000000;" parent="QtvFTy6N0q6erhGmj1na-1" source="QtvFTy6N0q6erhGmj1na-83" target="QtvFTy6N0q6erhGmj1na-85" edge="1">
          <mxGeometry relative="1" as="geometry" />
        </mxCell>
        <mxCell id="QtvFTy6N0q6erhGmj1na-83" value="" style="whiteSpace=wrap;html=1;aspect=fixed;fillColor=#bac8d3;strokeColor=#23445d;" parent="QtvFTy6N0q6erhGmj1na-1" vertex="1">
          <mxGeometry x="450" y="360" width="20" height="20" as="geometry" />
        </mxCell>
        <mxCell id="QtvFTy6N0q6erhGmj1na-85" value="" style="whiteSpace=wrap;html=1;aspect=fixed;fillColor=#bac8d3;strokeColor=#23445d;" parent="QtvFTy6N0q6erhGmj1na-1" vertex="1">
          <mxGeometry x="540" y="360" width="20" height="20" as="geometry" />
        </mxCell>
        <mxCell id="QtvFTy6N0q6erhGmj1na-90" style="edgeStyle=orthogonalEdgeStyle;rounded=0;orthogonalLoop=1;jettySize=auto;html=1;exitX=1;exitY=0.5;exitDx=0;exitDy=0;entryX=0;entryY=0.5;entryDx=0;entryDy=0;dashed=1;endArrow=none;endFill=0;strokeColor=#000000;" parent="QtvFTy6N0q6erhGmj1na-1" source="QtvFTy6N0q6erhGmj1na-91" target="QtvFTy6N0q6erhGmj1na-92" edge="1">
          <mxGeometry relative="1" as="geometry" />
        </mxCell>
        <mxCell id="QtvFTy6N0q6erhGmj1na-91" value="" style="whiteSpace=wrap;html=1;aspect=fixed;fillColor=#bac8d3;strokeColor=#23445d;" parent="QtvFTy6N0q6erhGmj1na-1" vertex="1">
          <mxGeometry x="450" y="410" width="20" height="20" as="geometry" />
        </mxCell>
        <mxCell id="QtvFTy6N0q6erhGmj1na-94" style="edgeStyle=orthogonalEdgeStyle;rounded=0;orthogonalLoop=1;jettySize=auto;html=1;exitX=0.5;exitY=1;exitDx=0;exitDy=0;entryX=0;entryY=0.25;entryDx=0;entryDy=0;dashed=1;endArrow=none;endFill=0;strokeColor=#000000;" parent="QtvFTy6N0q6erhGmj1na-1" source="QtvFTy6N0q6erhGmj1na-92" target="QtvFTy6N0q6erhGmj1na-34" edge="1">
          <mxGeometry relative="1" as="geometry" />
        </mxCell>
        <mxCell id="QtvFTy6N0q6erhGmj1na-92" value="" style="whiteSpace=wrap;html=1;aspect=fixed;fillColor=#bac8d3;strokeColor=#23445d;" parent="QtvFTy6N0q6erhGmj1na-1" vertex="1">
          <mxGeometry x="540" y="410" width="20" height="20" as="geometry" />
        </mxCell>
        <mxCell id="QtvFTy6N0q6erhGmj1na-97" style="edgeStyle=orthogonalEdgeStyle;rounded=0;orthogonalLoop=1;jettySize=auto;html=1;exitX=1;exitY=0.5;exitDx=0;exitDy=0;entryX=0;entryY=0.5;entryDx=0;entryDy=0;dashed=1;endArrow=none;endFill=0;strokeColor=#000000;" parent="QtvFTy6N0q6erhGmj1na-1" source="QtvFTy6N0q6erhGmj1na-98" target="QtvFTy6N0q6erhGmj1na-99" edge="1">
          <mxGeometry relative="1" as="geometry" />
        </mxCell>
        <mxCell id="QtvFTy6N0q6erhGmj1na-98" value="" style="whiteSpace=wrap;html=1;aspect=fixed;fillColor=#bac8d3;strokeColor=#23445d;" parent="QtvFTy6N0q6erhGmj1na-1" vertex="1">
          <mxGeometry x="450" y="445" width="20" height="20" as="geometry" />
        </mxCell>
        <mxCell id="QtvFTy6N0q6erhGmj1na-99" value="" style="whiteSpace=wrap;html=1;aspect=fixed;fillColor=#bac8d3;strokeColor=#23445d;" parent="QtvFTy6N0q6erhGmj1na-1" vertex="1">
          <mxGeometry x="540" y="445" width="20" height="20" as="geometry" />
        </mxCell>
        <mxCell id="QtvFTy6N0q6erhGmj1na-100" style="edgeStyle=orthogonalEdgeStyle;rounded=0;orthogonalLoop=1;jettySize=auto;html=1;exitX=1;exitY=0.5;exitDx=0;exitDy=0;entryX=0;entryY=0.5;entryDx=0;entryDy=0;dashed=1;endArrow=none;endFill=0;strokeColor=#000000;" parent="QtvFTy6N0q6erhGmj1na-1" source="QtvFTy6N0q6erhGmj1na-101" target="QtvFTy6N0q6erhGmj1na-102" edge="1">
          <mxGeometry relative="1" as="geometry" />
        </mxCell>
        <mxCell id="QtvFTy6N0q6erhGmj1na-101" value="" style="whiteSpace=wrap;html=1;aspect=fixed;fillColor=#bac8d3;strokeColor=#23445d;" parent="QtvFTy6N0q6erhGmj1na-1" vertex="1">
          <mxGeometry x="450" y="485" width="20" height="20" as="geometry" />
        </mxCell>
        <mxCell id="QtvFTy6N0q6erhGmj1na-102" value="" style="whiteSpace=wrap;html=1;aspect=fixed;fillColor=#bac8d3;strokeColor=#23445d;" parent="QtvFTy6N0q6erhGmj1na-1" vertex="1">
          <mxGeometry x="540" y="485" width="20" height="20" as="geometry" />
        </mxCell>
        <mxCell id="QtvFTy6N0q6erhGmj1na-112" style="edgeStyle=orthogonalEdgeStyle;rounded=0;orthogonalLoop=1;jettySize=auto;html=1;exitX=1;exitY=0.5;exitDx=0;exitDy=0;dashed=1;endArrow=none;endFill=0;strokeColor=#000000;" parent="QtvFTy6N0q6erhGmj1na-1" source="QtvFTy6N0q6erhGmj1na-106" target="QtvFTy6N0q6erhGmj1na-107" edge="1">
          <mxGeometry relative="1" as="geometry" />
        </mxCell>
        <mxCell id="QtvFTy6N0q6erhGmj1na-106" value="" style="whiteSpace=wrap;html=1;aspect=fixed;fillColor=#bac8d3;strokeColor=#23445d;" parent="QtvFTy6N0q6erhGmj1na-1" vertex="1">
          <mxGeometry x="1290" y="970" width="20" height="20" as="geometry" />
        </mxCell>
        <mxCell id="QtvFTy6N0q6erhGmj1na-107" value="" style="whiteSpace=wrap;html=1;aspect=fixed;fillColor=#bac8d3;strokeColor=#23445d;" parent="QtvFTy6N0q6erhGmj1na-1" vertex="1">
          <mxGeometry x="1350" y="970" width="20" height="20" as="geometry" />
        </mxCell>
        <mxCell id="QtvFTy6N0q6erhGmj1na-108" value="CDC" style="rounded=0;whiteSpace=wrap;html=1;fillColor=#60a917;strokeColor=#2D7600;fontColor=#ffffff;" parent="QtvFTy6N0q6erhGmj1na-1" vertex="1">
          <mxGeometry x="1380" y="920" width="60" height="30" as="geometry" />
        </mxCell>
        <mxCell id="QtvFTy6N0q6erhGmj1na-109" value="HMID" style="rounded=0;whiteSpace=wrap;html=1;fillColor=#60a917;strokeColor=#2D7600;fontColor=#ffffff;" parent="QtvFTy6N0q6erhGmj1na-1" vertex="1">
          <mxGeometry x="1380" y="965" width="60" height="30" as="geometry" />
        </mxCell>
      </root>
    </mxGraphModel>
  </diagram>
  <diagram name="HL_dynamicview2" id="qaoZ7vbbBT6Obu8wa_3w">
    <mxGraphModel dx="2074" dy="1129" grid="1" gridSize="10" guides="1" tooltips="1" connect="1" arrows="1" fold="1" page="1" pageScale="1" pageWidth="850" pageHeight="1100" math="0" shadow="0">
      <root>
        <mxCell id="y7Q3YMziI9IZjdUlnoHe-0" />
        <mxCell id="y7Q3YMziI9IZjdUlnoHe-1" parent="y7Q3YMziI9IZjdUlnoHe-0" />
        <mxCell id="y7Q3YMziI9IZjdUlnoHe-2" style="edgeStyle=orthogonalEdgeStyle;rounded=0;orthogonalLoop=1;jettySize=auto;html=1;entryX=0.002;entryY=0.52;entryDx=0;entryDy=0;entryPerimeter=0;exitX=0.999;exitY=0.59;exitDx=0;exitDy=0;exitPerimeter=0;" parent="y7Q3YMziI9IZjdUlnoHe-1" source="y7Q3YMziI9IZjdUlnoHe-3" edge="1">
          <mxGeometry relative="1" as="geometry">
            <mxPoint x="834" y="566" as="sourcePoint" />
            <mxPoint x="480.78" y="662.0699999999999" as="targetPoint" />
            <Array as="points">
              <mxPoint x="829" y="566" />
            </Array>
          </mxGeometry>
        </mxCell>
        <mxCell id="y7Q3YMziI9IZjdUlnoHe-3" value="" style="shape=folder;fontStyle=1;tabWidth=80;tabHeight=30;tabPosition=left;html=1;boundedLbl=1;strokeColor=#666666;fillColor=#f5f5f5;fontColor=#333333;" parent="y7Q3YMziI9IZjdUlnoHe-1" vertex="1">
          <mxGeometry x="460" y="280" width="900" height="680" as="geometry" />
        </mxCell>
        <mxCell id="y7Q3YMziI9IZjdUlnoHe-4" value="NadProxy" style="text;html=1;strokeColor=none;fillColor=none;align=center;verticalAlign=middle;whiteSpace=wrap;rounded=0;" parent="y7Q3YMziI9IZjdUlnoHe-1" vertex="1">
          <mxGeometry x="480" y="290" width="40" height="20" as="geometry" />
        </mxCell>
        <mxCell id="y7Q3YMziI9IZjdUlnoHe-5" style="edgeStyle=orthogonalEdgeStyle;rounded=0;orthogonalLoop=1;jettySize=auto;html=1;exitX=0;exitY=0.5;exitDx=0;exitDy=0;startArrow=classicThin;startFill=1;" parent="y7Q3YMziI9IZjdUlnoHe-1" source="y7Q3YMziI9IZjdUlnoHe-6" target="y7Q3YMziI9IZjdUlnoHe-12" edge="1">
          <mxGeometry relative="1" as="geometry" />
        </mxCell>
        <mxCell id="y7Q3YMziI9IZjdUlnoHe-6" value="someIP Wrapper" style="rounded=0;whiteSpace=wrap;html=1;fillColor=#dae8fc;strokeColor=#6c8ebf;" parent="y7Q3YMziI9IZjdUlnoHe-1" vertex="1">
          <mxGeometry x="1180" y="810" width="120" height="130" as="geometry" />
        </mxCell>
        <mxCell id="y7Q3YMziI9IZjdUlnoHe-7" value="" style="rounded=0;whiteSpace=wrap;html=1;fillColor=#60a917;strokeColor=#2D7600;fontColor=#ffffff;" parent="y7Q3YMziI9IZjdUlnoHe-1" vertex="1">
          <mxGeometry x="300" y="320" width="140" height="70" as="geometry" />
        </mxCell>
        <mxCell id="y7Q3YMziI9IZjdUlnoHe-8" value="" style="rounded=0;whiteSpace=wrap;html=1;fillColor=#60a917;strokeColor=#2D7600;fontColor=#ffffff;" parent="y7Q3YMziI9IZjdUlnoHe-1" vertex="1">
          <mxGeometry x="1380" y="810" width="110" height="70" as="geometry" />
        </mxCell>
        <mxCell id="y7Q3YMziI9IZjdUlnoHe-9" style="edgeStyle=orthogonalEdgeStyle;rounded=0;orthogonalLoop=1;jettySize=auto;html=1;exitX=1;exitY=0.5;exitDx=0;exitDy=0;" parent="y7Q3YMziI9IZjdUlnoHe-1" source="y7Q3YMziI9IZjdUlnoHe-12" target="y7Q3YMziI9IZjdUlnoHe-18" edge="1">
          <mxGeometry relative="1" as="geometry" />
        </mxCell>
        <mxCell id="y7Q3YMziI9IZjdUlnoHe-10" style="edgeStyle=orthogonalEdgeStyle;rounded=0;orthogonalLoop=1;jettySize=auto;html=1;exitX=0;exitY=0.5;exitDx=0;exitDy=0;entryX=1;entryY=0.5;entryDx=0;entryDy=0;" parent="y7Q3YMziI9IZjdUlnoHe-1" source="y7Q3YMziI9IZjdUlnoHe-12" target="y7Q3YMziI9IZjdUlnoHe-27" edge="1">
          <mxGeometry relative="1" as="geometry" />
        </mxCell>
        <mxCell id="3-7-SMD2t-KgD6OBcFJ8-10" style="edgeStyle=orthogonalEdgeStyle;rounded=0;orthogonalLoop=1;jettySize=auto;html=1;exitX=0.5;exitY=0;exitDx=0;exitDy=0;entryX=0.991;entryY=0.409;entryDx=0;entryDy=0;entryPerimeter=0;startArrow=classicThin;startFill=1;" parent="y7Q3YMziI9IZjdUlnoHe-1" source="y7Q3YMziI9IZjdUlnoHe-12" target="y7Q3YMziI9IZjdUlnoHe-25" edge="1">
          <mxGeometry relative="1" as="geometry" />
        </mxCell>
        <mxCell id="y7Q3YMziI9IZjdUlnoHe-12" value="request Manager" style="rounded=1;whiteSpace=wrap;html=1;fillColor=#dae8fc;strokeColor=#6c8ebf;" parent="y7Q3YMziI9IZjdUlnoHe-1" vertex="1">
          <mxGeometry x="790" y="530" width="190" height="130" as="geometry" />
        </mxCell>
        <mxCell id="y7Q3YMziI9IZjdUlnoHe-18" value="Request Factory" style="rounded=0;whiteSpace=wrap;html=1;fillColor=#dae8fc;strokeColor=#6c8ebf;" parent="y7Q3YMziI9IZjdUlnoHe-1" vertex="1">
          <mxGeometry x="1093" y="550" width="167" height="90" as="geometry" />
        </mxCell>
        <mxCell id="y7Q3YMziI9IZjdUlnoHe-22" value="" style="rounded=1;whiteSpace=wrap;html=1;fillColor=#dae8fc;strokeColor=#6c8ebf;" parent="y7Q3YMziI9IZjdUlnoHe-1" vertex="1">
          <mxGeometry x="490" y="730" width="210" height="110" as="geometry" />
        </mxCell>
        <mxCell id="y7Q3YMziI9IZjdUlnoHe-25" value="Binder Wrapper" style="rounded=0;whiteSpace=wrap;html=1;fillColor=#dae8fc;strokeColor=#6c8ebf;" parent="y7Q3YMziI9IZjdUlnoHe-1" vertex="1">
          <mxGeometry x="550" y="350" width="110" height="110" as="geometry" />
        </mxCell>
        <mxCell id="y7Q3YMziI9IZjdUlnoHe-27" value="Asynchronous Helper" style="rounded=1;whiteSpace=wrap;html=1;fillColor=#dae8fc;strokeColor=#6c8ebf;" parent="y7Q3YMziI9IZjdUlnoHe-1" vertex="1">
          <mxGeometry x="510" y="545" width="160" height="100" as="geometry" />
        </mxCell>
        <mxCell id="y7Q3YMziI9IZjdUlnoHe-31" value="Task executor" style="text;html=1;strokeColor=none;fillColor=none;align=center;verticalAlign=middle;whiteSpace=wrap;rounded=0;" parent="y7Q3YMziI9IZjdUlnoHe-1" vertex="1">
          <mxGeometry x="530" y="800" width="40" height="20" as="geometry" />
        </mxCell>
        <mxCell id="y7Q3YMziI9IZjdUlnoHe-32" value="" style="rounded=0;whiteSpace=wrap;html=1;fillColor=none;gradientColor=none;" parent="y7Q3YMziI9IZjdUlnoHe-1" vertex="1">
          <mxGeometry x="1140" y="990" width="230" height="130" as="geometry" />
        </mxCell>
        <mxCell id="y7Q3YMziI9IZjdUlnoHe-33" value="Key" style="text;html=1;strokeColor=none;fillColor=none;align=center;verticalAlign=middle;whiteSpace=wrap;rounded=0;" parent="y7Q3YMziI9IZjdUlnoHe-1" vertex="1">
          <mxGeometry x="1150" y="1000" width="40" height="20" as="geometry" />
        </mxCell>
        <mxCell id="y7Q3YMziI9IZjdUlnoHe-34" value="" style="endArrow=classic;html=1;rounded=0;" parent="y7Q3YMziI9IZjdUlnoHe-1" edge="1">
          <mxGeometry width="50" height="50" relative="1" as="geometry">
            <mxPoint x="1150" y="1040" as="sourcePoint" />
            <mxPoint x="1210" y="1040" as="targetPoint" />
          </mxGeometry>
        </mxCell>
        <mxCell id="y7Q3YMziI9IZjdUlnoHe-35" value="Request call" style="text;html=1;strokeColor=none;fillColor=none;align=center;verticalAlign=middle;whiteSpace=wrap;rounded=0;" parent="y7Q3YMziI9IZjdUlnoHe-1" vertex="1">
          <mxGeometry x="1223" y="1030" width="85" height="20" as="geometry" />
        </mxCell>
        <mxCell id="y7Q3YMziI9IZjdUlnoHe-36" value="" style="endArrow=classic;html=1;dashed=1;" parent="y7Q3YMziI9IZjdUlnoHe-1" edge="1">
          <mxGeometry width="50" height="50" relative="1" as="geometry">
            <mxPoint x="1150" y="1060" as="sourcePoint" />
            <mxPoint x="1210" y="1060" as="targetPoint" />
          </mxGeometry>
        </mxCell>
        <mxCell id="y7Q3YMziI9IZjdUlnoHe-37" value="Response call" style="text;html=1;strokeColor=none;fillColor=none;align=center;verticalAlign=middle;whiteSpace=wrap;rounded=0;" parent="y7Q3YMziI9IZjdUlnoHe-1" vertex="1">
          <mxGeometry x="1225" y="1050" width="85" height="20" as="geometry" />
        </mxCell>
        <mxCell id="y7Q3YMziI9IZjdUlnoHe-38" value="" style="rounded=0;whiteSpace=wrap;html=1;fillColor=#60a917;strokeColor=#2D7600;fontColor=#ffffff;" parent="y7Q3YMziI9IZjdUlnoHe-1" vertex="1">
          <mxGeometry x="1150" y="1080" width="70" height="30" as="geometry" />
        </mxCell>
        <mxCell id="y7Q3YMziI9IZjdUlnoHe-39" value="External entity" style="text;html=1;strokeColor=none;fillColor=none;align=center;verticalAlign=middle;whiteSpace=wrap;rounded=0;" parent="y7Q3YMziI9IZjdUlnoHe-1" vertex="1">
          <mxGeometry x="1225" y="1085" width="85" height="20" as="geometry" />
        </mxCell>
        <mxCell id="y7Q3YMziI9IZjdUlnoHe-40" value="" style="whiteSpace=wrap;html=1;aspect=fixed;fillColor=#bac8d3;strokeColor=#23445d;" parent="y7Q3YMziI9IZjdUlnoHe-1" vertex="1">
          <mxGeometry x="1290" y="820" width="20" height="20" as="geometry" />
        </mxCell>
        <mxCell id="y7Q3YMziI9IZjdUlnoHe-41" style="edgeStyle=orthogonalEdgeStyle;rounded=0;orthogonalLoop=1;jettySize=auto;html=1;exitX=0;exitY=0.75;exitDx=0;exitDy=0;entryX=1;entryY=0.25;entryDx=0;entryDy=0;strokeColor=#000000;dashed=1;endArrow=classicThin;endFill=1;startArrow=classicThin;startFill=1;" parent="y7Q3YMziI9IZjdUlnoHe-1" source="y7Q3YMziI9IZjdUlnoHe-42" target="3-7-SMD2t-KgD6OBcFJ8-4" edge="1">
          <mxGeometry relative="1" as="geometry" />
        </mxCell>
        <mxCell id="y7Q3YMziI9IZjdUlnoHe-42" value="" style="whiteSpace=wrap;html=1;aspect=fixed;fillColor=#bac8d3;strokeColor=#23445d;" parent="y7Q3YMziI9IZjdUlnoHe-1" vertex="1">
          <mxGeometry x="1350" y="820" width="20" height="20" as="geometry" />
        </mxCell>
        <mxCell id="y7Q3YMziI9IZjdUlnoHe-46" style="edgeStyle=orthogonalEdgeStyle;rounded=0;orthogonalLoop=1;jettySize=auto;html=1;exitX=1;exitY=0.5;exitDx=0;exitDy=0;entryX=0;entryY=0.5;entryDx=0;entryDy=0;dashed=1;endArrow=none;endFill=0;strokeColor=#000000;" parent="y7Q3YMziI9IZjdUlnoHe-1" source="y7Q3YMziI9IZjdUlnoHe-47" target="y7Q3YMziI9IZjdUlnoHe-48" edge="1">
          <mxGeometry relative="1" as="geometry" />
        </mxCell>
        <mxCell id="y7Q3YMziI9IZjdUlnoHe-47" value="" style="whiteSpace=wrap;html=1;aspect=fixed;fillColor=#bac8d3;strokeColor=#23445d;" parent="y7Q3YMziI9IZjdUlnoHe-1" vertex="1">
          <mxGeometry x="450" y="360" width="20" height="20" as="geometry" />
        </mxCell>
        <mxCell id="y7Q3YMziI9IZjdUlnoHe-48" value="" style="whiteSpace=wrap;html=1;aspect=fixed;fillColor=#bac8d3;strokeColor=#23445d;" parent="y7Q3YMziI9IZjdUlnoHe-1" vertex="1">
          <mxGeometry x="540" y="360" width="20" height="20" as="geometry" />
        </mxCell>
        <mxCell id="3-7-SMD2t-KgD6OBcFJ8-0" value="NAD services" style="rounded=0;whiteSpace=wrap;html=1;fillColor=#60a917;strokeColor=#2D7600;fontColor=#ffffff;" parent="y7Q3YMziI9IZjdUlnoHe-1" vertex="1">
          <mxGeometry x="330" y="330" width="120" height="70" as="geometry" />
        </mxCell>
        <mxCell id="3-7-SMD2t-KgD6OBcFJ8-1" value="" style="whiteSpace=wrap;html=1;aspect=fixed;fillColor=#bac8d3;strokeColor=#23445d;" parent="y7Q3YMziI9IZjdUlnoHe-1" vertex="1">
          <mxGeometry x="460" y="370" width="20" height="20" as="geometry" />
        </mxCell>
        <mxCell id="3-7-SMD2t-KgD6OBcFJ8-2" value="" style="whiteSpace=wrap;html=1;aspect=fixed;fillColor=#bac8d3;strokeColor=#23445d;" parent="y7Q3YMziI9IZjdUlnoHe-1" vertex="1">
          <mxGeometry x="550" y="370" width="20" height="20" as="geometry" />
        </mxCell>
        <mxCell id="3-7-SMD2t-KgD6OBcFJ8-3" style="edgeStyle=orthogonalEdgeStyle;rounded=0;orthogonalLoop=1;jettySize=auto;html=1;exitX=1;exitY=0.5;exitDx=0;exitDy=0;entryX=0;entryY=0.5;entryDx=0;entryDy=0;dashed=1;endArrow=none;endFill=0;strokeColor=#000000;" parent="y7Q3YMziI9IZjdUlnoHe-1" edge="1">
          <mxGeometry relative="1" as="geometry">
            <mxPoint x="480" y="380" as="sourcePoint" />
            <mxPoint x="550" y="380" as="targetPoint" />
          </mxGeometry>
        </mxCell>
        <mxCell id="3-7-SMD2t-KgD6OBcFJ8-4" value="" style="whiteSpace=wrap;html=1;aspect=fixed;fillColor=#bac8d3;strokeColor=#23445d;" parent="y7Q3YMziI9IZjdUlnoHe-1" vertex="1">
          <mxGeometry x="1300" y="830" width="20" height="20" as="geometry" />
        </mxCell>
        <mxCell id="3-7-SMD2t-KgD6OBcFJ8-5" value="" style="whiteSpace=wrap;html=1;aspect=fixed;fillColor=#bac8d3;strokeColor=#23445d;" parent="y7Q3YMziI9IZjdUlnoHe-1" vertex="1">
          <mxGeometry x="1360" y="830" width="20" height="20" as="geometry" />
        </mxCell>
        <mxCell id="3-7-SMD2t-KgD6OBcFJ8-6" value="BAM services" style="rounded=0;whiteSpace=wrap;html=1;fillColor=#60a917;strokeColor=#2D7600;fontColor=#ffffff;" parent="y7Q3YMziI9IZjdUlnoHe-1" vertex="1">
          <mxGeometry x="1390" y="820" width="120" height="70" as="geometry" />
        </mxCell>
        <mxCell id="3-7-SMD2t-KgD6OBcFJ8-7" style="edgeStyle=orthogonalEdgeStyle;rounded=0;orthogonalLoop=1;jettySize=auto;html=1;exitX=0;exitY=0.75;exitDx=0;exitDy=0;entryX=1;entryY=0.75;entryDx=0;entryDy=0;strokeColor=#000000;dashed=1;endArrow=classicThin;endFill=1;startArrow=classic;startFill=1;" parent="y7Q3YMziI9IZjdUlnoHe-1" edge="1">
          <mxGeometry relative="1" as="geometry">
            <mxPoint x="1360" y="845" as="sourcePoint" />
            <mxPoint x="1320" y="845" as="targetPoint" />
          </mxGeometry>
        </mxCell>
        <mxCell id="3-7-SMD2t-KgD6OBcFJ8-9" value="Use" style="endArrow=open;endSize=12;dashed=1;html=1;rounded=0;exitX=0.5;exitY=1;exitDx=0;exitDy=0;entryX=0.467;entryY=0.009;entryDx=0;entryDy=0;entryPerimeter=0;" parent="y7Q3YMziI9IZjdUlnoHe-1" source="y7Q3YMziI9IZjdUlnoHe-27" target="y7Q3YMziI9IZjdUlnoHe-22" edge="1">
          <mxGeometry width="160" relative="1" as="geometry">
            <mxPoint x="850" y="680" as="sourcePoint" />
            <mxPoint x="1010" y="680" as="targetPoint" />
          </mxGeometry>
        </mxCell>
        <mxCell id="-94rH-awUiMhkD5JIEsJ-0" value="NAD Manager" style="rounded=0;whiteSpace=wrap;html=1;fillColor=#fff2cc;strokeColor=#d6b656;" vertex="1" parent="y7Q3YMziI9IZjdUlnoHe-1">
          <mxGeometry x="1388" y="905" width="120" height="50" as="geometry" />
        </mxCell>
        <mxCell id="-94rH-awUiMhkD5JIEsJ-1" value="" style="whiteSpace=wrap;html=1;aspect=fixed;fillColor=#bac8d3;strokeColor=#23445d;" vertex="1" parent="y7Q3YMziI9IZjdUlnoHe-1">
          <mxGeometry x="1300" y="920" width="20" height="20" as="geometry" />
        </mxCell>
        <mxCell id="-94rH-awUiMhkD5JIEsJ-2" value="" style="whiteSpace=wrap;html=1;aspect=fixed;fillColor=#bac8d3;strokeColor=#23445d;" vertex="1" parent="y7Q3YMziI9IZjdUlnoHe-1">
          <mxGeometry x="1368" y="920" width="20" height="20" as="geometry" />
        </mxCell>
        <mxCell id="-94rH-awUiMhkD5JIEsJ-3" style="edgeStyle=orthogonalEdgeStyle;rounded=0;orthogonalLoop=1;jettySize=auto;html=1;exitX=0;exitY=0.5;exitDx=0;exitDy=0;entryX=1;entryY=0.5;entryDx=0;entryDy=0;strokeColor=#000000;dashed=1;endArrow=classic;endFill=1;startArrow=classic;startFill=1;" edge="1" parent="y7Q3YMziI9IZjdUlnoHe-1" source="-94rH-awUiMhkD5JIEsJ-2" target="-94rH-awUiMhkD5JIEsJ-1">
          <mxGeometry relative="1" as="geometry">
            <mxPoint x="1368" y="935" as="sourcePoint" />
            <mxPoint x="1328" y="935" as="targetPoint" />
          </mxGeometry>
        </mxCell>
      </root>
    </mxGraphModel>
  </diagram>
</mxfile>
